<svg width="16" height="28" viewBox="0 0 16 28" fill="none" xmlns="http://www.w3.org/2000/svg">
<path d="M10.1995 12.6764C10.958 12.1422 11.6217 11.4622 12.6172 11.3165C13.2335 11.2679 13.6601 10.7822 13.8497 10.2965C14.8927 7.91669 15.3667 5.53682 14.229 3.01125C13.9445 2.42843 13.8023 1.79704 13.9445 1.21422C14.0868 0.582825 14.5134 1.29962e-07 15.1771 7.19417e-08C15.983 1.48868e-09 15.9356 0.777098 15.9356 1.26278C15.983 3.73978 16.0304 6.26535 15.9356 8.74235C15.8882 10.0051 15.1771 11.0736 14.3238 11.9964C16.3148 13.6478 16.3148 13.6478 14.703 15.4448C14.4186 15.8334 14.3712 15.9791 14.6556 16.3191C16.0778 17.9704 16.0304 19.9131 15.983 21.953C15.9356 23.6044 15.983 25.2557 15.9356 26.8584C15.9356 27.2956 15.8882 27.8784 15.3667 27.9755C14.7978 28.1212 14.466 27.587 14.229 27.1499C13.8023 26.4213 13.8971 25.5957 14.2764 24.8671C15.4615 22.4387 14.9401 20.0588 14.0394 17.7761C13.8023 17.2419 13.3757 16.7076 12.712 16.5619C11.6691 16.3676 10.8158 15.7362 9.91511 14.862C9.58327 16.9019 11.8113 18.6504 10.0099 20.6417C9.39365 19.0875 8.06631 18.3104 6.73896 17.5333C6.02788 17.0962 5.36421 16.5619 5.74345 15.4934C5.83826 15.2991 6.26491 14.9106 5.69605 14.7163C5.41162 14.6192 4.98497 14.5706 4.79535 14.9591C4.3687 15.6877 3.89465 16.3676 3.04136 16.2219C1.90363 16.0276 1.05034 15.2991 0.291857 14.4735C0.149642 14.3277 -0.0399792 14.0363 0.00742503 13.9392C0.623692 12.9678 1.52439 12.3364 2.5673 11.8993C3.32579 11.5593 3.94205 11.8507 4.46351 12.4336C4.65313 12.6764 4.79535 13.0164 5.07978 13.2107C5.2694 13.3564 5.64864 13.3078 5.88567 13.2107C6.1701 13.1135 5.93307 12.8221 5.88567 12.6278C5.41161 11.4622 6.07529 10.8308 6.97599 10.2965C8.25593 9.56802 9.48846 8.79092 10.0099 7.18816C10.958 8.30524 11.0528 9.47088 10.4366 10.5394C10.0573 11.1708 10.0573 11.8022 10.0573 12.4336C10.0099 12.5793 10.0099 12.6764 9.96251 12.8221C9.96251 12.7735 10.0573 12.725 10.1995 12.6764ZM10.484 13.9878C10.9106 14.6192 11.4321 15.1048 12.1432 15.202C12.949 15.2991 13.7075 14.9591 13.8023 13.9878C13.8497 13.1621 13.2335 12.7735 12.5698 12.6764C11.6217 12.5307 11.1002 13.2592 10.484 13.9878ZM9.39365 13.1135C8.9196 12.385 8.63517 11.5108 7.68706 11.4622C7.35523 11.4136 7.16561 11.8507 7.30782 12.2393C7.68706 13.1621 8.35074 13.4535 9.39365 13.1135ZM1.85623 14.0849C2.14066 14.5706 2.5673 14.7649 3.08876 14.7649C3.65762 14.7649 3.79984 14.2792 3.70503 13.7935C3.65762 13.2107 3.23098 13.1135 2.75693 13.2592C2.37768 13.3564 1.95104 13.5021 1.85623 14.0849ZM9.39365 14.6677C8.44555 14.5706 7.68706 14.6192 7.35523 15.6391C7.26042 15.9791 7.40263 16.4648 7.73447 16.4162C8.68257 16.3676 8.967 15.542 9.39365 14.6677Z" fill="#C1121F"/>
</svg>
