<svg width="66" height="66" viewBox="0 0 66 66" fill="none" xmlns="http://www.w3.org/2000/svg">
<path d="M8.15745 57.8028H19.6551C20.3403 57.8028 20.9495 58.1073 21.4064 58.6403C23.7668 61.5338 27.7262 64.9602 32.9801 64.9602C38.234 64.9602 42.1934 61.5338 44.5539 58.6403C45.0107 58.1073 45.6199 57.8028 46.3051 57.8028H57.8028V46.229C57.8028 45.5437 58.1073 44.9346 58.6403 44.4777C61.5338 42.1173 64.9602 38.1578 64.9602 32.904C64.9602 27.6501 61.5338 23.6906 58.6403 21.3302C58.1073 20.8734 57.8028 20.2642 57.8028 19.5789V8.15745H46.229C45.5437 8.15745 44.9346 7.85288 44.4777 7.31988C42.1173 4.42644 38.1578 1 32.904 1C27.6501 1 23.6906 4.42644 21.3302 7.31988C20.8734 7.85288 20.2642 8.15745 19.5789 8.15745H8.15745V19.6551C8.15745 20.3403 7.85288 20.9495 7.31988 21.4064C4.42644 23.7668 1 27.7262 1 32.9801C1 38.234 4.42644 42.1934 7.31988 44.5539C7.85288 45.0107 8.15745 45.6199 8.15745 46.3051V57.8028Z" stroke="#13134A" stroke-width="2" stroke-miterlimit="10"/>
<path d="M18.6008 46.2293H19.2826V27.8202C19.2826 27.6394 19.3544 27.466 19.4823 27.3381C19.6101 27.2103 19.7836 27.1384 19.9644 27.1384H26.7826C26.9634 27.1384 27.1368 27.2103 27.2647 27.3381C27.3926 27.466 27.4644 27.6394 27.4644 27.8202V46.2293H28.828V31.9112C28.828 31.7303 28.8999 31.5569 29.0277 31.429C29.1556 31.3012 29.329 31.2293 29.5099 31.2293H36.328C36.5089 31.2293 36.6823 31.3012 36.8102 31.429C36.938 31.5569 37.0099 31.7303 37.0099 31.9112V46.2293H38.3735V36.0021C38.3735 35.8212 38.4453 35.6478 38.5732 35.5199C38.7011 35.3921 38.8745 35.3202 39.0553 35.3202H45.8735C46.0543 35.3202 46.2277 35.3921 46.3556 35.5199C46.4835 35.6478 46.5553 35.8212 46.5553 36.0021V46.2293H47.2371C47.418 46.2293 47.5914 46.3012 47.7192 46.429C47.8471 46.5569 47.9189 46.7303 47.9189 46.9112C47.9189 47.092 47.8471 47.2654 47.7192 47.3933C47.5914 47.5211 47.418 47.593 47.2371 47.593H18.6008C18.4199 47.593 18.2465 47.5211 18.1186 47.3933C17.9908 47.2654 17.9189 47.092 17.9189 46.9112C17.9189 46.7303 17.9908 46.5569 18.1186 46.429C18.2465 46.3012 18.4199 46.2293 18.6008 46.2293ZM26.1008 28.5021H20.6462V46.2293H26.1008V28.5021ZM35.6462 32.593H30.1917V46.2293H35.6462V32.593ZM45.1917 36.6839H39.7371V46.2293H45.1917V36.6839Z" fill="#13134A"/>
<path d="M47.9183 28.3543C47.4347 28.3543 46.712 28.8324 46.1049 29.316C45.3231 29.9385 44.6399 30.6819 44.1186 31.5344C43.7282 32.1729 43.3531 32.9485 43.3531 33.5717M43.3531 33.5717C43.3531 32.9485 42.9779 32.1729 42.5875 31.5344C42.0662 30.6819 41.383 29.9385 40.6013 29.316C39.9941 28.8324 39.2714 28.3543 38.7879 28.3543M43.3531 33.5717V26.0717C43.3531 21.7495 39.8492 18.2456 35.527 18.2456H20.853" stroke="#13134A" stroke-width="0.652175"/>
</svg>
