<svg width="66" height="66" viewBox="0 0 66 66" fill="none" xmlns="http://www.w3.org/2000/svg">
<path d="M8.15745 57.8028H19.6551C20.3403 57.8028 20.9495 58.1073 21.4064 58.6403C23.7668 61.5338 27.7262 64.9602 32.9801 64.9602C38.234 64.9602 42.1934 61.5338 44.5539 58.6403C45.0107 58.1073 45.6199 57.8028 46.3051 57.8028H57.8028V46.229C57.8028 45.5437 58.1073 44.9346 58.6403 44.4777C61.5338 42.1173 64.9602 38.1578 64.9602 32.904C64.9602 27.6501 61.5338 23.6906 58.6403 21.3302C58.1073 20.8734 57.8028 20.2642 57.8028 19.5789V8.15745H46.229C45.5437 8.15745 44.9346 7.85288 44.4777 7.31988C42.1173 4.42644 38.1578 1 32.904 1C27.6501 1 23.6906 4.42644 21.3302 7.31988C20.8734 7.85288 20.2642 8.15745 19.5789 8.15745H8.15745V19.6551C8.15745 20.3403 7.85288 20.9495 7.31988 21.4064C4.42644 23.7668 1 27.7262 1 32.9801C1 38.234 4.42644 42.1934 7.31988 44.5539C7.85288 45.0107 8.15745 45.6199 8.15745 46.3051V57.8028Z" stroke="#F5F5F5" stroke-width="2" stroke-miterlimit="10"/>
<g clip-path="url(#clip0_43_1096)">
<path d="M33.1819 29.25H31.9319C31.2415 29.25 30.6819 29.8095 30.6819 30.4998V30.9688C30.6819 31.5244 31.0486 32.0133 31.5819 32.1688L34.7819 33.1021C35.3153 33.2576 35.6819 33.7463 35.6819 34.3019V35.5004C35.6819 36.1908 35.1223 36.75 34.4319 36.75H33.1819M33.1819 29.25H34.4319C35.1223 29.25 35.6819 29.8096 35.6819 30.5V31.126M33.1819 29.25V27.375M33.1819 36.75H31.9319C31.2415 36.75 30.6819 36.1904 30.6819 35.5V34.8744M33.1819 36.75V38.625M19.4319 21.75H34.4319C39.9548 21.75 44.4319 26.2271 44.4319 31.75M19.4319 21.75C19.9438 21.75 20.6703 21.4419 21.1948 21.1212C21.8951 20.6929 22.5057 20.1318 23.0171 19.4896C23.4143 18.9909 23.807 18.3972 23.807 18M19.4319 21.75C19.9438 21.75 20.6703 22.0581 21.1948 22.3788C21.8951 22.8071 22.5057 23.3682 23.0171 24.0104C23.4143 24.5091 23.807 25.1028 23.807 25.5M46.9319 44.25H31.9319C26.409 44.25 21.9319 39.7729 21.9319 34.25M46.9319 44.25C46.42 44.25 45.6936 44.5581 45.1691 44.8788C44.4689 45.3071 43.8583 45.8683 43.3469 46.5104C42.9496 47.0091 42.5569 47.6028 42.5569 48M46.9319 44.25C46.42 44.25 45.6935 43.9419 45.1691 43.6212C44.4689 43.1929 43.8583 42.6317 43.3469 41.9896C42.9496 41.4909 42.5569 40.8972 42.5569 40.5M40.6819 33C40.6819 28.8579 37.324 25.5 33.1819 25.5C29.0398 25.5 25.6819 28.8579 25.6819 33C25.6819 37.1421 29.0398 40.5 33.1819 40.5C37.324 40.5 40.6819 37.1421 40.6819 33Z" stroke="white" stroke-width="2"/>
</g>
<defs>
<clipPath id="clip0_43_1096">
<rect width="30" height="30" fill="white" transform="translate(18.1819 18)"/>
</clipPath>
</defs>
</svg>
