<svg width="66" height="66" viewBox="0 0 66 66" fill="none" xmlns="http://www.w3.org/2000/svg">
<path d="M8.15745 57.8028H19.6551C20.3403 57.8028 20.9495 58.1073 21.4064 58.6403C23.7668 61.5338 27.7262 64.9602 32.9801 64.9602C38.234 64.9602 42.1934 61.5338 44.5539 58.6403C45.0107 58.1073 45.6199 57.8028 46.3051 57.8028H57.8028V46.229C57.8028 45.5437 58.1073 44.9346 58.6403 44.4777C61.5338 42.1173 64.9602 38.1578 64.9602 32.904C64.9602 27.6501 61.5338 23.6906 58.6403 21.3302C58.1073 20.8734 57.8028 20.2642 57.8028 19.5789V8.15745H46.229C45.5437 8.15745 44.9346 7.85288 44.4777 7.31988C42.1173 4.42644 38.1578 1 32.904 1C27.6501 1 23.6906 4.42644 21.3302 7.31988C20.8734 7.85288 20.2642 8.15745 19.5789 8.15745H8.15745V19.6551C8.15745 20.3403 7.85288 20.9495 7.31988 21.4064C4.42644 23.7668 1 27.7262 1 32.9801C1 38.234 4.42644 42.1934 7.31988 44.5539C7.85288 45.0107 8.15745 45.6199 8.15745 46.3051V57.8028Z" stroke="#F5F5F5" stroke-width="2" stroke-miterlimit="10"/>
<g clip-path="url(#clip0_43_1092)">
<path d="M35.7401 49.8447V40.6764C35.7401 39.1185 37.0031 37.8556 38.561 37.8556V26.5715C38.561 26.5715 36.4452 25.1611 32.919 25.1611C29.3928 25.1611 27.2771 26.5717 27.2771 26.5717V37.8556C28.8351 37.8556 30.0982 39.1187 30.0982 40.6767V49.8446M20.93 49.8444V40.6767C20.93 39.1187 19.667 37.8556 18.1089 37.8556V26.5716C18.1089 26.5716 20.2246 25.1611 23.7508 25.1611M44.9083 49.8447V40.6764C44.9083 39.1185 46.1713 37.8556 47.7291 37.8556V26.5715C47.7291 26.5715 45.6134 25.1611 42.0872 25.1611M32.7074 22.3402C32.7074 22.3402 30.4507 20.9297 30.4507 19.1666C30.4507 17.8034 31.5558 16.6982 32.919 16.6982C34.2822 16.6982 35.3813 17.8034 35.3813 19.1666C35.3813 20.9297 33.1306 22.3402 33.1306 22.3402H32.7074ZM23.5393 22.3402C23.5393 22.3402 21.2825 20.9297 21.2825 19.1666C21.2825 17.8034 22.3876 16.6982 23.7508 16.6982C25.1141 16.6982 26.2131 17.8034 26.2131 19.1666C26.2131 20.9297 23.9624 22.3402 23.9624 22.3402H23.5393ZM41.8756 22.3402C41.8756 22.3402 39.6188 20.9297 39.6188 19.1666C39.6188 17.8034 40.7239 16.6982 42.0872 16.6982C43.4504 16.6982 44.5495 17.8034 44.5495 19.1666C44.5495 20.9297 42.2988 22.3402 42.2988 22.3402H41.8756Z" stroke="#F5F5F5" stroke-width="2"/>
</g>
<defs>
<clipPath id="clip0_43_1092">
<rect width="33.8517" height="33.8517" fill="white" transform="translate(15.9932 15.9934)"/>
</clipPath>
</defs>
</svg>
