<svg width="25" height="25" viewBox="0 0 25 25" fill="none" xmlns="http://www.w3.org/2000/svg">
<g clip-path="url(#clip0_38_39)">
<path d="M9.3035 12.5C9.30346 9.90442 10.3309 7.41438 12.1612 5.57404C13.9915 3.7337 16.4758 2.6927 19.0714 2.67854C17.3153 1.5725 15.2948 0.957527 13.2203 0.897655C11.1458 0.837782 9.09324 1.33521 7.27631 2.33812C5.45938 3.34103 3.94458 4.81275 2.88966 6.59999C1.83475 8.38723 1.27832 10.4246 1.27832 12.5C1.27832 14.5753 1.83475 16.6127 2.88966 18.3999C3.94458 20.1872 5.45938 21.6589 7.27631 22.6618C9.09324 23.6647 11.1458 24.1622 13.2203 24.1023C15.2948 24.0424 17.3153 23.4274 19.0714 22.3214C16.4758 22.3072 13.9915 21.2662 12.1612 19.4259C10.3309 17.5856 9.30346 15.0955 9.3035 12.5Z" stroke="#F1DFD1" stroke-width="1.5" stroke-linecap="round" stroke-linejoin="round"/>
<path d="M18.8749 7.21436L20.4999 10.4465H23.7321L21.3035 12.9465L22.0714 16.5179L18.8749 14.7322L15.8214 16.5179L16.4642 12.9465L14.0356 10.4465H17.2678L18.8749 7.21436Z" stroke="#F1DFD1" stroke-width="1.5" stroke-linecap="round" stroke-linejoin="round"/>
</g>
<defs>
<clipPath id="clip0_38_39">
<rect width="25" height="25" fill="white"/>
</clipPath>
</defs>
</svg>
