<svg width="67" height="40" viewBox="0 0 67 40" fill="none" xmlns="http://www.w3.org/2000/svg">
<path d="M36.1526 24.9428C37.4131 26.7976 39.0173 28.4206 39.361 30.8551C39.4756 32.3622 40.6215 33.4055 41.7674 33.8693C47.3821 36.4197 52.9969 37.579 58.9554 34.7967C60.3304 34.1011 61.8201 33.7533 63.1951 34.1011C64.6847 34.4489 66.0598 35.4923 66.0598 37.1153C66.0598 39.086 64.2264 38.9701 63.0805 38.9701C57.2366 39.086 51.2781 39.202 45.4341 38.9701C42.4549 38.8542 39.934 37.1153 37.7568 35.0285C33.8609 39.8975 33.8609 39.8975 29.6212 35.956C28.7045 35.2604 28.3607 35.1445 27.5586 35.84C23.6626 39.3179 19.0792 39.202 14.2665 39.086C10.3706 38.9701 6.4746 39.086 2.69324 38.9701C1.66196 38.9701 0.286913 38.8542 0.0577389 37.579C-0.286022 36.1878 0.974434 35.3763 2.00572 34.7967C3.72452 33.7533 5.6725 33.9852 7.3913 34.9126C13.1206 37.8108 18.7354 36.5356 24.121 34.333C25.3814 33.7533 26.6419 32.71 26.9857 31.087C27.444 28.5365 28.9336 26.4498 30.9962 24.2472C26.1835 23.4357 22.0584 28.8843 17.3604 24.479C21.0271 22.972 22.8605 19.726 24.6939 16.48C25.7252 14.7411 26.9857 13.1181 29.5066 14.0455C29.9649 14.2773 30.8816 15.3207 31.34 13.9296C31.5691 13.234 31.6837 12.1906 30.767 11.7269C29.0482 10.6836 27.444 9.52427 27.7878 7.43756C28.2461 4.65527 29.9649 2.56856 31.9129 0.713706C32.2567 0.36592 32.9442 -0.0977967 33.1733 0.0181318C35.4651 1.5252 36.9547 3.72784 37.986 6.27827C38.7881 8.13313 38.1006 9.6402 36.7255 10.9154C36.1526 11.3791 35.3505 11.7269 34.8922 12.4225C34.5484 12.8862 34.663 13.8136 34.8922 14.3933C35.1213 15.0888 35.8088 14.5092 36.2672 14.3933C39.0173 13.234 40.5069 14.857 41.7674 17.0596C43.4862 20.1897 45.3196 23.2038 49.1009 24.479C46.4654 26.7976 43.7153 27.0295 41.1944 25.5224C39.7048 24.595 38.2152 24.595 36.7255 24.595C36.3818 24.479 36.1526 24.479 35.8088 24.3631C35.9234 24.3631 36.038 24.595 36.1526 24.9428ZM33.0588 25.6383C31.5691 26.6817 30.4233 27.9569 30.1941 29.6958C29.9649 31.6666 30.767 33.5215 33.0588 33.7533C35.0067 33.8693 35.9234 32.3622 36.1526 30.7392C36.4964 28.4206 34.7776 27.1454 33.0588 25.6383ZM35.1213 22.972C36.8401 21.8127 38.9027 21.1171 39.0173 18.7986C39.1319 17.9871 38.1006 17.5233 37.1839 17.8711C35.0067 18.7986 34.3192 20.4216 35.1213 22.972ZM32.8296 4.53934C31.6837 5.23491 31.2254 6.27827 31.2254 7.55348C31.2254 8.94463 32.3712 9.29241 33.5171 9.06056C34.8922 8.94463 35.1213 7.90127 34.7776 6.74198C34.5484 5.81456 34.2046 4.7712 32.8296 4.53934ZM31.4545 22.972C31.6837 20.6534 31.5691 18.7985 29.1628 17.9871C28.3607 17.7552 27.2148 18.103 27.3294 18.9145C27.444 21.2331 29.392 21.9286 31.4545 22.972Z" fill="#DF2925"/>
</svg>
