<svg width="985" height="572" viewBox="0 0 985 572" fill="none" xmlns="http://www.w3.org/2000/svg">
<path d="M498.334 50.3602C500.891 54.1052 504.145 57.3821 504.843 62.2974C505.075 65.3403 507.399 67.4468 509.724 68.3831C521.113 73.5325 532.502 75.8731 544.589 70.2556C547.378 68.8512 550.4 68.149 553.189 68.8512C556.211 69.5534 559 71.66 559 74.9369C559 78.9159 555.281 78.6819 552.957 78.6819C541.102 78.9159 529.016 79.15 517.162 78.6819C511.118 78.4478 506.005 74.9369 501.588 70.7237C493.686 80.5544 493.686 80.5544 485.085 72.5962C483.226 71.1918 482.529 70.9578 480.902 72.3622C472.999 79.384 463.701 79.15 453.939 78.9159C446.036 78.6819 438.134 78.9159 430.463 78.6819C428.371 78.6819 425.582 78.4478 425.117 75.8731C424.42 73.0643 426.977 71.4259 429.069 70.2556C432.555 68.149 436.506 68.6171 439.993 70.4897C451.615 76.3412 463.004 73.7665 473.929 69.3193C476.485 68.149 479.042 66.0425 479.739 62.7656C480.669 57.6162 483.691 53.403 487.875 48.9558C478.112 47.3174 469.745 58.3184 460.215 49.424C467.653 46.3812 471.372 39.8274 475.091 33.2736C477.183 29.7627 479.739 26.4858 484.853 28.3583C485.783 28.8264 487.642 30.933 488.572 28.1242C489.037 26.7198 489.269 24.6133 487.41 23.677C483.923 21.5705 480.669 19.2298 481.367 15.0167C482.296 9.39918 485.783 5.18605 489.734 1.44104C490.432 0.738855 491.826 -0.197403 492.291 0.0366605C496.94 3.07948 499.961 7.52668 502.053 12.6761C503.68 16.4211 502.286 19.4639 499.497 22.0386C498.334 22.9748 496.707 23.677 495.778 25.0814C495.08 26.0177 495.313 27.8902 495.778 29.0605C496.242 30.4649 497.637 29.2945 498.567 29.0605C504.145 26.7199 507.167 29.9967 509.724 34.4439C513.21 40.7636 516.929 46.8493 524.6 49.424C519.254 54.1052 513.675 54.5734 508.561 51.5305C505.54 49.658 502.518 49.658 499.497 49.658C498.799 49.424 498.334 49.424 497.637 49.1899C497.869 49.1899 498.102 49.658 498.334 50.3602ZM492.059 51.7646C489.037 53.8712 486.713 56.4459 486.248 59.9568C485.783 63.9359 487.41 67.6809 492.059 68.149C496.01 68.3831 497.869 65.3403 498.334 62.0634C499.032 57.3821 495.545 54.8074 492.059 51.7646ZM496.242 46.3812C499.729 44.0405 503.913 42.6361 504.145 37.9549C504.378 36.3164 502.286 35.3802 500.426 36.0824C496.01 37.9549 494.615 41.2318 496.242 46.3812ZM491.594 9.16512C489.269 10.5695 488.34 12.6761 488.34 15.2508C488.34 18.0595 490.664 18.7617 492.988 18.2936C495.778 18.0595 496.242 15.9529 495.545 13.6123C495.08 11.7398 494.383 9.63325 491.594 9.16512ZM488.804 46.3812C489.269 41.6999 489.037 37.9549 484.156 36.3164C482.529 35.8483 480.204 36.5505 480.437 38.1889C480.669 42.8702 484.621 44.2746 488.804 46.3812Z" fill="#C1121F"/>
<mask id="path-2-inside-1_92_116" fill="white">
<path d="M76.1819 79H907.818V492.273H76.1819V79Z"/>
</mask>
<path d="M76.1819 79H907.818V492.273H76.1819V79Z" fill="#FEE2CD"/>
<path d="M76.1819 79V75.3636H72.5455V79H76.1819ZM907.818 79H911.455V75.3636H907.818V79ZM907.818 492.273V495.909H911.455V492.273H907.818ZM76.1819 492.273H72.5455V495.909H76.1819V492.273ZM76.1819 79V82.6364H907.818V79V75.3636H76.1819V79ZM907.818 79H904.182V492.273H907.818H911.455V79H907.818ZM907.818 492.273V488.636H76.1819V492.273V495.909H907.818V492.273ZM76.1819 492.273H79.8182V79H76.1819H72.5455V492.273H76.1819Z" fill="#C1121F" mask="url(#path-2-inside-1_92_116)"/>
<path d="M933.64 280.335C929.895 282.892 926.618 286.146 921.703 286.843C918.66 287.075 916.553 289.4 915.617 291.724C910.468 303.113 908.127 314.503 913.744 326.589C915.149 329.379 915.851 332.4 915.149 335.19C914.447 338.211 912.34 341 909.063 341C905.084 341 905.318 337.282 905.318 334.957C905.084 323.103 904.85 311.016 905.318 299.162C905.552 293.119 909.063 288.005 913.276 283.589C903.446 275.686 903.446 275.686 911.404 267.086C912.808 265.226 913.042 264.529 911.638 262.902C904.616 254.999 904.85 245.702 905.084 235.94C905.318 228.037 905.084 220.134 905.318 212.464C905.318 210.372 905.552 207.582 908.127 207.118C910.936 206.42 912.574 208.977 913.744 211.069C915.851 214.556 915.383 218.507 913.51 221.993C907.659 233.615 910.233 245.005 914.681 255.929C915.851 258.486 917.958 261.043 921.234 261.74C926.384 262.67 930.597 265.691 935.044 269.875C936.683 260.113 925.682 251.745 934.576 242.215C937.619 249.653 944.173 253.372 950.726 257.091C954.237 259.183 957.514 261.74 955.642 266.854C955.174 267.783 953.067 269.643 955.876 270.573C957.28 271.037 959.387 271.27 960.323 269.41C962.43 265.924 964.77 262.67 968.983 263.367C974.601 264.297 978.814 267.783 982.559 271.735C983.261 272.432 984.197 273.827 983.963 274.291C980.921 278.94 976.473 281.962 971.324 284.054C967.579 285.681 964.536 284.286 961.961 281.497C961.025 280.335 960.323 278.708 958.919 277.778C957.982 277.081 956.11 277.313 954.94 277.778C953.535 278.243 954.705 279.638 954.94 280.567C957.28 286.146 954.003 289.167 949.556 291.724C943.236 295.211 937.151 298.93 934.576 306.6C929.895 301.254 929.427 295.676 932.469 290.562C934.342 287.54 934.342 284.519 934.342 281.497C934.576 280.8 934.576 280.335 934.81 279.638C934.81 279.87 934.342 280.102 933.64 280.335ZM932.235 274.059C930.129 271.037 927.554 268.713 924.043 268.248C920.064 267.783 916.319 269.41 915.851 274.059C915.617 278.01 918.66 279.87 921.937 280.335C926.618 281.032 929.193 277.546 932.235 274.059ZM937.619 278.243C939.959 281.729 941.364 285.913 946.045 286.146C947.684 286.378 948.62 284.286 947.918 282.427C946.045 278.01 942.768 276.616 937.619 278.243ZM974.835 273.594C973.43 271.27 971.324 270.34 968.749 270.34C965.94 270.34 965.238 272.664 965.706 274.989C965.94 277.778 968.047 278.243 970.388 277.546C972.26 277.081 974.367 276.383 974.835 273.594ZM937.619 270.805C942.3 271.27 946.045 271.037 947.684 266.156C948.152 264.529 947.449 262.205 945.811 262.437C941.13 262.67 939.725 266.621 937.619 270.805Z" fill="#C1121F"/>
<path d="M50.3602 280.334C54.1052 282.891 57.3821 286.145 62.2974 286.843C65.3403 287.075 67.4468 289.399 68.3831 291.724C73.5325 303.113 75.8731 314.502 70.2556 326.589C68.8512 329.378 68.149 332.4 68.8512 335.189C69.5534 338.211 71.66 341 74.9368 341C78.9159 341 78.6819 337.281 78.6819 334.957C78.9159 323.102 79.15 311.016 78.6819 299.162C78.4478 293.118 74.9368 288.005 70.7237 283.588C80.5544 275.686 80.5544 275.686 72.5962 267.085C71.1918 265.226 70.9578 264.529 72.3622 262.902C79.384 254.999 79.15 245.701 78.9159 235.939C78.6819 228.036 78.9159 220.134 78.6819 212.463C78.6819 210.371 78.4478 207.582 75.8731 207.117C73.0643 206.42 71.4259 208.977 70.2556 211.069C68.149 214.555 68.6171 218.506 70.4897 221.993C76.3412 233.615 73.7665 245.004 69.3193 255.929C68.149 258.485 66.0424 261.042 62.7656 261.739C57.6162 262.669 53.403 265.691 48.9558 269.875C47.3174 260.112 58.3184 251.745 49.424 242.215C46.3811 249.653 39.8274 253.372 33.2736 257.091C29.7627 259.183 26.4858 261.739 28.3583 266.853C28.8264 267.783 30.933 269.642 28.1242 270.572C26.7198 271.037 24.6133 271.269 23.677 269.41C21.5705 265.923 19.2298 262.669 15.0167 263.367C9.39918 264.296 5.18605 267.783 1.44104 271.734C0.738852 272.432 -0.197406 273.826 0.0366575 274.291C3.07948 278.94 7.52668 281.961 12.6761 284.053C16.4211 285.68 19.4639 284.286 22.0386 281.496C22.9748 280.334 23.677 278.707 25.0814 277.778C26.0177 277.08 27.8902 277.313 29.0605 277.778C30.4649 278.242 29.2945 279.637 29.0605 280.567C26.7198 286.145 29.9967 289.167 34.4439 291.724C40.7636 295.21 46.8493 298.929 49.424 306.6C54.1052 301.254 54.5734 295.675 51.5305 290.561C49.658 287.54 49.658 284.518 49.658 281.496C49.424 280.799 49.424 280.334 49.1899 279.637C49.1899 279.869 49.658 280.102 50.3602 280.334ZM51.7646 274.059C53.8712 271.037 56.4459 268.713 59.9568 268.248C63.9359 267.783 67.6809 269.41 68.149 274.059C68.3831 278.01 65.3403 279.869 62.0634 280.334C57.3821 281.032 54.8074 277.545 51.7646 274.059ZM46.3811 278.242C44.0405 281.729 42.6361 285.913 37.9549 286.145C36.3164 286.378 35.3802 284.286 36.0824 282.426C37.9549 278.01 41.2318 276.615 46.3811 278.242ZM9.16512 273.594C10.5695 271.269 12.6761 270.34 15.2508 270.34C18.0595 270.34 18.7617 272.664 18.2936 274.988C18.0595 277.778 15.9529 278.242 13.6123 277.545C11.7398 277.08 9.63324 276.383 9.16512 273.594ZM46.3811 270.804C41.6999 271.269 37.9549 271.037 36.3164 266.156C35.8483 264.529 36.5505 262.204 38.1889 262.437C42.8702 262.669 44.2746 266.621 46.3811 270.804Z" fill="#C1121F"/>
<path d="M498.334 520.912C500.891 517.167 504.145 513.89 504.843 508.975C505.075 505.932 507.399 503.826 509.724 502.889C521.113 497.74 532.502 495.399 544.589 501.017C547.378 502.421 550.4 503.123 553.189 502.421C556.211 501.719 559 499.612 559 496.336C559 492.357 555.281 492.591 552.957 492.591C541.102 492.357 529.016 492.122 517.162 492.591C511.118 492.825 506.005 496.336 501.588 500.549C493.686 490.718 493.686 490.718 485.085 498.676C483.226 500.081 482.529 500.315 480.902 498.91C472.999 491.888 463.701 492.122 453.939 492.357C446.036 492.591 438.134 492.357 430.463 492.591C428.371 492.591 425.582 492.825 425.117 495.399C424.42 498.208 426.977 499.847 429.069 501.017C432.555 503.123 436.506 502.655 439.993 500.783C451.615 494.931 463.004 497.506 473.929 501.953C476.485 503.123 479.042 505.23 479.739 508.507C480.669 513.656 483.691 517.869 487.875 522.317C478.112 523.955 469.745 512.954 460.215 521.848C467.653 524.891 471.372 531.445 475.091 537.999C477.183 541.51 479.739 544.787 484.853 542.914C485.783 542.446 487.642 540.339 488.572 543.148C489.037 544.553 489.269 546.659 487.41 547.595C483.923 549.702 480.669 552.043 481.367 556.256C482.296 561.873 485.783 566.086 489.734 569.831C490.432 570.534 491.826 571.47 492.291 571.236C496.94 568.193 499.961 563.746 502.053 558.596C503.68 554.851 502.286 551.809 499.497 549.234C498.334 548.298 496.707 547.595 495.778 546.191C495.08 545.255 495.313 543.382 495.778 542.212C496.242 540.808 497.637 541.978 498.567 542.212C504.145 544.553 507.167 541.276 509.724 536.829C513.21 530.509 516.929 524.423 524.6 521.848C519.254 517.167 513.675 516.699 508.561 519.742C505.54 521.614 502.518 521.614 499.497 521.614C498.799 521.848 498.334 521.848 497.637 522.083C497.869 522.083 498.102 521.614 498.334 520.912ZM492.059 519.508C489.037 517.401 486.713 514.827 486.248 511.316C485.783 507.337 487.41 503.592 492.059 503.123C496.01 502.889 497.869 505.932 498.334 509.209C499.032 513.89 495.545 516.465 492.059 519.508ZM496.242 524.891C499.729 527.232 503.913 528.636 504.145 533.318C504.378 534.956 502.286 535.892 500.426 535.19C496.01 533.318 494.615 530.041 496.242 524.891ZM491.594 562.107C489.269 560.703 488.34 558.596 488.34 556.022C488.34 553.213 490.664 552.511 492.988 552.979C495.778 553.213 496.242 555.32 495.545 557.66C495.08 559.533 494.383 561.639 491.594 562.107ZM488.804 524.891C489.269 529.573 489.037 533.318 484.156 534.956C482.529 535.424 480.204 534.722 480.437 533.084C480.669 528.402 484.621 526.998 488.804 524.891Z" fill="#C1121F"/>
</svg>
