<svg width="34" height="34" viewBox="0 0 34 34" fill="none" xmlns="http://www.w3.org/2000/svg">
<g clip-path="url(#clip0_136_18)">
<path d="M16.7387 15.8087C18.0262 15.8087 19.2847 15.427 20.3552 14.7117C21.4257 13.9964 22.26 12.9798 22.7527 11.7903C23.2454 10.6009 23.3743 9.29205 23.1231 8.02934C22.8719 6.76662 22.252 5.60674 21.3416 4.69638C20.4312 3.78601 19.2714 3.16605 18.0087 2.91488C16.7459 2.66371 15.4371 2.79262 14.2477 3.2853C13.0582 3.77799 12.0416 4.61232 11.3263 5.6828C10.611 6.75328 10.2292 8.01182 10.2292 9.29927C10.2292 11.0257 10.9151 12.6814 12.1358 13.9022C13.3566 15.1229 15.0123 15.8087 16.7387 15.8087ZM16.7387 4.64965C17.6583 4.64965 18.5573 4.92234 19.3219 5.43325C20.0865 5.94416 20.6825 6.67033 21.0344 7.51994C21.3863 8.36955 21.4784 9.30443 21.299 10.2064C21.1196 11.1083 20.6768 11.9368 20.0265 12.5871C19.3762 13.2373 18.5478 13.6801 17.6458 13.8596C16.7439 14.039 15.809 13.9469 14.9594 13.595C14.1098 13.243 13.3836 12.6471 12.8727 11.8825C12.3618 11.1178 12.0891 10.2189 12.0891 9.29927C12.0891 8.06611 12.579 6.88346 13.4509 6.01149C14.3229 5.13952 15.5056 4.64965 16.7387 4.64965Z" fill="#F1DFD1"/>
<path d="M28.3346 22.6622C26.8433 21.086 25.0462 19.8305 23.0531 18.9725C21.0601 18.1144 18.913 17.6719 16.7431 17.6719C14.5732 17.6719 12.4261 18.1144 10.433 18.9725C8.44 19.8305 6.64289 21.086 5.15158 22.6622C4.82825 23.0076 4.64868 23.4631 4.64942 23.9362V28.8276C4.64942 29.3209 4.84536 29.7939 5.19415 30.1427C5.54294 30.4915 6.016 30.6875 6.50927 30.6875H26.9676C27.4609 30.6875 27.9339 30.4915 28.2827 30.1427C28.6315 29.7939 28.8275 29.3209 28.8275 28.8276V23.9362C28.8307 23.4644 28.6545 23.009 28.3346 22.6622ZM26.9676 28.8276H6.50927V23.9269C7.82718 22.5392 9.41369 21.4341 11.1722 20.6789C12.9308 19.9238 14.8246 19.5344 16.7384 19.5344C18.6523 19.5344 20.5461 19.9238 22.3046 20.6789C24.0632 21.4341 25.6497 22.5392 26.9676 23.9269V28.8276Z" fill="#F1DFD1"/>
</g>
<defs>
<clipPath id="clip0_136_18">
<rect width="33.4773" height="33.4773" fill="white"/>
</clipPath>
</defs>
</svg>
