<svg width="139" height="24" viewBox="0 0 139 24" fill="none" xmlns="http://www.w3.org/2000/svg">
<path d="M135.351 14.1119L138.855 13.3199V16.7279L135.351 17.2559V14.1119Z" fill="#C1121F"/>
<path d="M130.248 16.296V16.992H125.112V16.296L126 16.224V11.16C126 10.456 125.8 9.912 125.4 9.528C125.016 9.144 124.48 8.944 123.792 8.928L123 9.72L122.952 16.224L123.84 16.296V16.992H118.68V16.296L119.568 16.224L119.448 1.848L118.536 2.04L118.296 1.344L122.736 0L123.072 0.576L123 8.568L124.944 5.784C126.464 5.784 127.584 6.144 128.304 6.864C129.024 7.584 129.384 8.696 129.384 10.2V16.224L130.248 16.296Z" fill="#232385"/>
<path d="M118.275 15.7439L114.747 17.3999C114.315 17.0959 114.019 16.6799 113.859 16.1519C113.283 16.5039 112.699 16.7919 112.107 17.0159C111.531 17.2399 111.027 17.3519 110.595 17.3519C109.939 17.3519 109.403 17.1199 108.987 16.6559C108.571 16.1919 108.363 15.5999 108.363 14.8799C108.363 14.5599 108.395 14.2159 108.459 13.8479C108.539 13.4639 108.635 13.1599 108.747 12.9359L113.835 12.1199L113.883 11.4239C113.915 10.7039 113.763 10.1439 113.427 9.74391C113.091 9.32791 112.547 9.11991 111.795 9.11991C111.459 9.11991 111.107 9.15991 110.739 9.23991C110.371 9.30391 110.059 9.39191 109.803 9.50391L109.419 10.3199L108.771 10.0799L109.875 6.62391C111.107 6.09591 112.275 5.83191 113.379 5.83191C114.515 5.83191 115.443 6.13591 116.163 6.74391C116.883 7.33591 117.243 8.27191 117.243 9.55191L117.219 10.0319L116.979 13.2719L116.931 14.1359C116.931 14.4239 116.955 14.6559 117.003 14.8319C117.051 14.9919 117.131 15.1599 117.243 15.3359L117.987 15.0479L118.275 15.7439ZM112.827 15.6239C113.083 15.6239 113.379 15.5279 113.715 15.3359L113.691 14.8319L113.715 14.3039L113.787 12.9359L111.939 13.3679C111.875 13.5759 111.843 13.8559 111.843 14.2079C111.843 14.6879 111.939 15.0479 112.131 15.2879C112.323 15.5119 112.555 15.6239 112.827 15.6239Z" fill="#232385"/>
<path d="M108.373 6.19189V6.95989L107.677 6.98389L104.629 14.0639C103.797 16.0319 102.933 17.8319 102.037 19.4639C101.157 21.0959 100.357 22.3919 99.6367 23.3519L96.8047 20.6639C98.7887 19.5279 100.565 18.2799 102.133 16.9199L100.813 16.9919L97.1167 6.98389L96.4207 6.95989V6.19189H102.109V6.95989L101.101 6.98389L103.285 14.3279L105.253 6.98389L104.245 6.95989V6.19189H108.373Z" fill="#232385"/>
<path d="M91.9689 1.12789L95.0409 0.431885V3.16788L91.9689 3.62389V1.12789ZM95.2809 16.2239L96.1689 16.2959V16.9919H91.0089V16.2959L91.8969 16.2239L91.8249 7.67989L90.9129 7.87189L90.6729 7.17589L95.0169 5.83189L95.3529 6.40789L95.2809 16.2239Z" fill="#232385"/>
<path d="M89.8973 16.2959V16.9919H84.7613V16.2959L85.6493 16.2239V11.1599C85.6493 10.4559 85.4653 9.91189 85.0973 9.52789C84.7453 9.12789 84.2493 8.91989 83.6093 8.90389L82.7213 9.79189V10.1999V16.2239L83.5853 16.2959V16.9919H78.4493V16.2959L79.3373 16.2239V11.1599C79.3373 10.4559 79.1533 9.91189 78.7853 9.52789C78.4333 9.14389 77.9373 8.94389 77.2973 8.92789L76.5053 9.71989L76.4093 16.2239L77.2973 16.2959V16.9919H72.1373V16.2959L73.0253 16.2239L72.9533 7.63189L72.0413 7.84789L71.8013 7.12789L75.5933 5.95189L76.4333 8.63989L78.4253 5.78389C79.6573 5.78389 80.6093 6.03189 81.2813 6.52789C81.9693 7.02389 82.4093 7.79189 82.6013 8.83189L84.7373 5.75989C86.2093 5.75989 87.2893 6.11989 87.9773 6.83989C88.6813 7.55989 89.0333 8.67989 89.0333 10.1999V16.2239L89.8973 16.2959Z" fill="#232385"/>
<path d="M71.5409 15.7439L68.0129 17.3999C67.5809 17.0959 67.2849 16.6799 67.1249 16.1519C66.5489 16.5039 65.9649 16.7919 65.3729 17.0159C64.7969 17.2399 64.2929 17.3519 63.8609 17.3519C63.2049 17.3519 62.6689 17.1199 62.2529 16.6559C61.8369 16.1919 61.6289 15.5999 61.6289 14.8799C61.6289 14.5599 61.6609 14.2159 61.7249 13.8479C61.8049 13.4639 61.9009 13.1599 62.0129 12.9359L67.1009 12.1199L67.1489 11.4239C67.1809 10.7039 67.0289 10.1439 66.6929 9.74391C66.3569 9.32791 65.8129 9.11991 65.0609 9.11991C64.7249 9.11991 64.3729 9.15991 64.0049 9.23991C63.6369 9.30391 63.3249 9.39191 63.0689 9.50391L62.6849 10.3199L62.0369 10.0799L63.1409 6.62391C64.3729 6.09591 65.5409 5.83191 66.6449 5.83191C67.7809 5.83191 68.7089 6.13591 69.4289 6.74391C70.1489 7.33591 70.5089 8.27191 70.5089 9.55191L70.4849 10.0319L70.2449 13.2719L70.1969 14.1359C70.1969 14.4239 70.2209 14.6559 70.2689 14.8319C70.3169 14.9919 70.3969 15.1599 70.5089 15.3359L71.2529 15.0479L71.5409 15.7439ZM66.0929 15.6239C66.3489 15.6239 66.6449 15.5279 66.9809 15.3359L66.9569 14.8319L66.9809 14.3039L67.0529 12.9359L65.2049 13.3679C65.1409 13.5759 65.1089 13.8559 65.1089 14.2079C65.1089 14.6879 65.2049 15.0479 65.3969 15.2879C65.5889 15.5119 65.8209 15.6239 66.0929 15.6239Z" fill="#232385"/>
<path d="M61.6383 6.19189V6.95989L60.9423 6.98389L57.8943 14.0639C57.0623 16.0319 56.1983 17.8319 55.3023 19.4639C54.4223 21.0959 53.6223 22.3919 52.9023 23.3519L50.0703 20.6639C52.0543 19.5279 53.8303 18.2799 55.3983 16.9199L54.0783 16.9919L50.3823 6.98389L49.6863 6.95989V6.19189H55.3743V6.95989L54.3663 6.98389L56.5503 14.3279L58.5183 6.98389L57.5103 6.95989V6.19189H61.6383Z" fill="#232385"/>
<path d="M50.2477 6.19189V6.95989L49.5517 6.98389L46.5037 14.0639C45.6717 16.0319 44.8077 17.8319 43.9117 19.4639C43.0317 21.0959 42.2317 22.3919 41.5117 23.3519L38.6797 20.6639C40.6637 19.5279 42.4397 18.2799 44.0077 16.9199L42.6877 16.9919L38.9917 6.98389L38.2957 6.95989V6.19189H43.9837V6.95989L42.9757 6.98389L45.1597 14.3279L47.1277 6.98389L46.1197 6.95989V6.19189H50.2477Z" fill="#232385"/>
<path d="M38.494 15.7439L34.966 17.3999C34.534 17.0959 34.238 16.6799 34.078 16.1519C33.502 16.5039 32.918 16.7919 32.326 17.0159C31.75 17.2399 31.246 17.3519 30.814 17.3519C30.158 17.3519 29.622 17.1199 29.206 16.6559C28.79 16.1919 28.582 15.5999 28.582 14.8799C28.582 14.5599 28.614 14.2159 28.678 13.8479C28.758 13.4639 28.854 13.1599 28.966 12.9359L34.054 12.1199L34.102 11.4239C34.134 10.7039 33.982 10.1439 33.646 9.74391C33.31 9.32791 32.766 9.11991 32.014 9.11991C31.678 9.11991 31.326 9.15991 30.958 9.23991C30.59 9.30391 30.278 9.39191 30.022 9.50391L29.638 10.3199L28.99 10.0799L30.094 6.62391C31.326 6.09591 32.494 5.83191 33.598 5.83191C34.734 5.83191 35.662 6.13591 36.382 6.74391C37.102 7.33591 37.462 8.27191 37.462 9.55191L37.438 10.0319L37.198 13.2719L37.15 14.1359C37.15 14.4239 37.174 14.6559 37.222 14.8319C37.27 14.9919 37.35 15.1599 37.462 15.3359L38.206 15.0479L38.494 15.7439ZM33.046 15.6239C33.302 15.6239 33.598 15.5279 33.934 15.3359L33.91 14.8319L33.934 14.3039L34.006 12.9359L32.158 13.3679C32.094 13.5759 32.062 13.8559 32.062 14.2079C32.062 14.6879 32.158 15.0479 32.35 15.2879C32.542 15.5119 32.774 15.6239 33.046 15.6239Z" fill="#232385"/>
<path d="M28.0367 16.296V16.992H22.9007V16.296L23.7887 16.224V11.16C23.7887 10.456 23.5887 9.912 23.1887 9.528C22.8047 9.144 22.2687 8.944 21.5807 8.928L20.7887 9.72L20.7407 16.224L21.6287 16.296V16.992H16.4687V16.296L17.3567 16.224L17.2367 1.848L16.3247 2.04L16.0847 1.344L20.5247 0L20.8607 0.576L20.7887 8.568L22.7327 5.784C24.2527 5.784 25.3727 6.144 26.0927 6.864C26.8127 7.584 27.1727 8.696 27.1727 10.2V16.224L28.0367 16.296Z" fill="#232385"/>
<path d="M5.16 16.128L6.336 16.152V16.992H0V16.152L1.176 16.128V1.77599L0 1.75199V0.911987H6.336V1.75199L5.16 1.77599V16.128ZM15.888 16.152V16.992H8.424V16.152L9.6 16.128L5.52 9.09599L10.728 1.77599L9.552 1.75199V0.911987H15.264V1.75199L13.968 1.77599L8.64 6.93599L14.712 16.128L15.888 16.152Z" fill="#232385"/>
</svg>
