<svg width="372" height="369" viewBox="0 0 372 369" fill="none" xmlns="http://www.w3.org/2000/svg">
<g opacity="0.77">
<rect width="372" height="369" rx="184.5" fill="#202079"/>
<path d="M283.638 233.446C279.978 231.334 278.741 226.717 280.854 223.058L301.712 186.951L280.764 151.119C278.578 147.58 279.998 142.87 283.538 140.684C287.079 138.498 291.791 139.916 293.977 143.454L316.829 183.313C318.076 185.66 318.272 188.7 317.004 190.896L294.032 230.661C291.918 234.321 287.299 235.559 283.638 233.446Z" fill="#F4F1FF"/>
<path d="M128.473 296.451C127.253 295.747 126.417 294.939 125.62 293.503L102.766 253.641C100.58 250.102 102 245.391 105.54 243.205C109.081 241.019 113.794 242.437 115.98 245.976L136.788 282.056L178.071 282.13C179.47 281.961 180.831 282.421 182.296 283.266C185.956 285.379 187.194 289.996 185.08 293.656C183.67 296.096 181.182 297.588 178.421 297.296L132.453 297.446C130.81 297.474 129.693 297.155 128.473 296.451Z" fill="#F4F1FF"/>
<path d="M105.478 130.638C101.818 128.526 100.58 123.908 102.694 120.249L125.666 80.4835C127.075 78.0439 129.564 76.5523 132.324 76.8438L178.288 76.6934C182.447 76.8162 186.032 80.1859 185.908 84.343C185.784 88.5002 182.412 92.0843 178.253 91.9614L136.589 91.9906L115.731 128.097C113.758 131.512 109.138 132.75 105.478 130.638Z" fill="#F4F1FF"/>
<path d="M91.9768 233.432C90.7566 232.728 89.9214 231.921 89.124 230.485L66.2721 190.626C65.0245 188.28 64.8287 185.239 66.0971 183.043L89.0687 143.278C91.1826 139.619 95.8021 138.381 99.4626 140.493C103.123 142.605 104.36 147.222 102.246 150.882L81.3887 186.988L102.196 223.065C104.382 226.603 102.962 231.314 99.4215 233.499C97.318 234.888 94.4171 234.84 91.9768 233.432Z" fill="#F4F1FF"/>
<path d="M201.077 296.391C198.881 295.124 197.389 292.637 197.437 289.737C197.561 285.58 200.933 281.996 205.092 282.119L246.757 282.09L267.474 246.227C269.587 242.568 274.207 241.33 277.867 243.442C281.528 245.555 282.765 250.172 280.651 253.831L257.679 293.597C256.27 296.036 253.782 297.528 251.022 297.236L205.057 297.387C203.658 297.555 202.297 297.095 201.077 296.391Z" fill="#F4F1FF"/>
<path d="M201.049 90.8144C197.389 88.7021 196.151 84.0844 198.265 80.4247C199.675 77.9849 202.164 76.4932 205.065 76.5407L251.033 76.3905C253.69 76.2972 256.374 77.8462 257.622 80.1927L280.476 120.055C282.662 123.594 281.242 128.305 277.701 130.491C274.161 132.677 269.448 131.259 267.262 127.72L246.698 91.7809L205.415 91.7069C204.016 91.8755 202.514 91.6594 201.049 90.8144Z" fill="#F4F1FF"/>
<path d="M201.049 90.8168C197.389 88.7045 196.152 84.0871 198.266 80.4276C198.407 80.1836 198.548 79.9396 198.688 79.6957C215.082 56.9508 241.779 43.4049 270.057 43.4574C272.714 43.3641 275.399 44.9131 276.647 47.2595C290.831 71.709 292.198 101.449 280.93 127.151C279.304 131.092 274.787 132.715 270.845 131.09C266.902 129.466 265.28 124.952 266.906 121.011C275.665 101.342 275.281 78.3501 265.582 59.0912C243.903 60.5696 223.929 71.4892 211.265 88.9044C208.945 91.7944 204.71 92.929 201.049 90.8168Z" fill="#F4F1FF"/>
<path d="M105.475 130.637C104.01 129.792 103.072 128.6 102.275 127.164C90.8228 101.364 92.3568 71.6723 106.45 47.2757C107.86 44.836 110.348 43.3444 113.249 43.3919C141.527 43.4445 168.24 56.907 184.669 79.7238C187.24 83.159 186.45 87.9073 183.012 90.4779C179.575 93.0486 174.825 92.2593 172.254 88.8241C159.54 71.4042 139.492 60.4861 117.861 59.0648C108.23 78.5542 107.741 101.368 116.529 121.077C118.189 124.962 116.525 129.532 112.638 131.192C109.943 131.914 107.427 131.764 105.475 130.637Z" fill="#F4F1FF"/>
<path d="M60.3878 223.337C47.2098 215.733 35.7609 204.573 27.9933 190.983C26.7457 188.636 26.5499 185.596 27.9592 183.156C42.0526 158.759 67.0141 142.586 95.0962 139.598C99.293 139.092 103.019 142.218 103.524 146.412C104.029 150.607 100.901 154.332 96.7043 154.838C75.232 157.086 55.5673 169.16 43.6362 186.997C55.6829 205.008 75.168 216.902 96.6195 219.196C100.882 219.704 103.941 223.421 103.432 227.681C102.923 231.942 99.2037 235 94.9416 234.493C82.6433 233.251 70.8814 229.392 60.3878 223.337Z" fill="#F4F1FF"/>
<path d="M109.307 329.628C108.087 328.924 107.252 328.117 106.454 326.681C92.2698 302.231 90.9028 272.491 102.171 246.789C103.797 242.848 108.314 241.226 112.256 242.85C116.199 244.474 117.821 248.988 116.195 252.93C107.436 272.598 107.82 295.59 117.519 314.849C139.198 313.371 159.172 302.451 171.836 285.036C174.053 281.761 178.532 280.767 181.948 282.739C185.609 284.851 186.846 289.468 184.732 293.128C184.591 293.372 184.45 293.616 184.309 293.86C167.916 316.605 141.219 330.151 112.94 330.098C111.645 330.651 110.527 330.332 109.307 329.628Z" fill="#F4F1FF"/>
<path d="M225.863 318.827C215.369 312.772 206.144 304.521 198.675 294.357C196.104 290.921 196.895 286.173 200.332 283.602C203.77 281.032 208.52 281.821 211.091 285.256C223.804 302.676 244.097 313.735 265.483 315.015C275.115 295.526 275.604 272.713 266.816 253.004C265.156 249.118 266.819 244.548 270.707 242.888C274.595 241.228 279.166 242.89 280.826 246.775C292.175 272.19 290.744 302.267 276.65 326.664C275.241 329.103 272.752 330.595 269.851 330.547C254.577 330.516 239.04 326.431 225.863 318.827Z" fill="#F4F1FF"/>
<path d="M283.639 233.449C281.687 232.323 280.055 230.08 279.821 227.668C279.316 223.473 282.444 219.748 286.641 219.242C308.113 216.994 327.778 204.92 339.709 187.083C327.662 169.072 308.177 157.178 286.725 154.884C282.463 154.376 279.404 150.66 279.913 146.399C280.422 142.139 284.141 139.08 288.403 139.588C316.248 142.643 341.411 158.789 355.596 183.239C356.843 185.585 357.039 188.625 355.63 191.065C341.536 215.462 316.575 231.635 288.493 234.623C286.606 234.51 284.86 234.154 283.639 233.449Z" fill="#F4F1FF"/>
<path d="M294.5 181.331C290.273 181.331 286.891 177.951 286.891 173.726V132.037L250.818 111.475C247.155 109.503 246.027 104.714 248 101.053C249.973 97.3907 254.764 96.264 258.427 98.2358L298.164 121.333C300.418 122.742 302.109 125.277 302.109 127.812V173.726C302.109 177.951 298.727 181.331 294.5 181.331Z" fill="#DF2925"/>
<path d="M191.636 313.439C190.227 313.439 189.1 313.157 187.691 312.312L147.954 289.215C144.291 287.243 143.163 282.454 145.136 278.792C147.109 275.131 151.9 274.004 155.563 275.976L191.636 296.82L227.427 276.257C228.554 275.412 229.963 275.131 231.654 275.131C235.881 275.131 239.263 278.511 239.263 282.736C239.263 285.553 237.854 288.088 235.318 289.215L195.581 312.312C194.172 313.157 193.045 313.439 191.636 313.439Z" fill="#DF2925"/>
<path d="M88.7727 181.331C84.5454 181.331 81.1636 177.951 81.1636 173.726V127.812C81.1636 124.995 82.5726 122.46 85.109 121.334L124.845 98.2358C128.509 96.264 133.3 97.3908 135.273 101.053C137.245 104.714 136.118 109.503 132.454 111.475L96.3817 132.319V174.008C96.3817 177.951 92.9999 181.331 88.7727 181.331Z" fill="#DF2925"/>
<path d="M128.509 277.102C127.1 277.102 125.973 276.821 124.564 275.976L84.8273 252.878C82.5728 251.47 80.8818 248.934 80.8818 246.399V200.486C80.8818 196.26 84.2636 192.88 88.4909 192.88C92.7182 192.88 96.1 196.26 96.1 200.486V242.174L132.173 263.018C135.836 264.99 136.964 269.779 134.991 273.441C133.864 275.694 131.327 277.102 128.509 277.102Z" fill="#DF2925"/>
<path d="M254.482 277.102C251.946 277.102 249.409 275.694 248 273.159C246.027 269.497 247.155 264.708 250.818 262.737L286.891 241.892V200.486C286.891 196.26 290.273 192.88 294.5 192.88C298.727 192.88 302.109 196.26 302.109 200.486V246.399C302.109 249.216 300.7 251.751 298.164 252.878L258.427 275.976C257.3 276.821 255.891 277.102 254.482 277.102Z" fill="#DF2925"/>
<path d="M151.618 99.0806C147.391 99.0806 144.009 95.7005 144.009 91.4753C144.009 88.6585 145.418 86.1234 147.954 84.715L187.691 61.6173C189.945 60.2089 193.045 60.2089 195.3 61.6173L235.036 84.715C238.7 86.6867 239.827 91.4753 237.854 95.1371C235.881 98.799 231.091 99.9257 227.427 97.9539L191.636 77.1096L155.845 97.6722C154.718 98.5173 153.309 99.0806 151.618 99.0806Z" fill="#DF2925"/>
<path d="M151.618 99.0807C147.391 99.0807 144.009 95.7006 144.009 91.4754C144.009 91.1937 144.009 90.912 144.009 90.6303C146.827 62.7441 163.172 37.6746 187.691 23.5906C189.945 22.1822 193.045 22.1822 195.3 23.5906C219.818 37.6746 235.882 62.7441 238.982 90.6303C239.545 94.8555 236.445 98.5174 232.218 99.0807C227.991 99.6441 224.327 96.5456 223.763 92.3204C221.509 70.9128 209.672 51.1952 191.636 39.3647C173.6 51.4769 161.763 70.9128 159.509 92.3204C158.945 95.9822 155.845 99.0807 151.618 99.0807Z" fill="#DF2925"/>
<path d="M88.7726 181.331C87.0817 181.331 85.6726 180.768 84.2635 179.923C61.4362 163.303 47.9089 136.826 47.9089 108.658C47.9089 105.841 49.318 103.306 51.8544 101.897C76.3726 87.8134 106.245 86.1233 131.891 97.6721C135.836 99.3622 137.527 103.869 135.836 107.813C134.145 111.756 129.636 113.446 125.691 111.756C105.963 103.024 83.1362 103.587 63.6908 113.165C65.0999 134.854 76.0907 154.853 93.5635 167.529C96.9453 170.064 97.7908 174.852 95.2544 178.232C93.2817 180.204 91.0271 181.331 88.7726 181.331Z" fill="#DF2925"/>
<path d="M96.0999 284.144C80.8817 284.144 65.3816 280.201 51.8544 272.314C49.5998 270.905 47.9089 268.37 47.9089 265.553C47.9089 237.385 61.4362 210.907 84.2635 194.288C87.6453 191.753 92.4362 192.598 94.9726 195.978C97.5089 199.359 96.6635 204.147 93.2817 206.682C75.8089 219.358 64.818 239.639 63.4089 261.046C82.8544 270.623 105.682 271.187 125.409 262.455C129.354 260.765 133.863 262.455 135.554 266.398C137.245 270.342 135.554 274.849 131.609 276.539C120.336 281.609 108.218 284.144 96.0999 284.144Z" fill="#DF2925"/>
<path d="M191.636 351.747C190.227 351.747 189.1 351.465 187.691 350.62C163.173 336.536 147.109 311.467 144.009 283.581C143.445 279.355 146.545 275.693 150.772 275.13C155 274.567 158.663 277.665 159.227 281.89C161.482 303.298 173.318 323.016 191.354 334.846C209.391 322.734 221.227 303.298 223.482 281.89C223.763 277.947 227.145 274.848 231.091 274.848C235.318 274.848 238.7 278.229 238.7 282.454C238.7 282.735 238.7 283.017 238.7 283.299C235.882 311.185 219.536 336.255 195.018 350.339C194.172 351.465 193.045 351.747 191.636 351.747Z" fill="#DF2925"/>
<path d="M287.173 284.144C275.055 284.144 262.936 281.609 251.382 276.539C247.436 274.849 245.745 270.342 247.436 266.398C249.127 262.455 253.636 260.765 257.582 262.455C277.309 271.187 300.418 270.623 319.582 261.046C318.173 239.357 307.182 219.358 289.709 206.682C286.327 204.147 285.482 199.359 288.018 195.978C290.555 192.598 295.345 191.753 298.727 194.288C321.273 210.626 335.082 237.385 335.082 265.553C335.082 268.37 333.673 270.905 331.136 272.314C317.891 279.919 302.391 284.144 287.173 284.144Z" fill="#DF2925"/>
<path d="M294.5 181.331C292.245 181.331 289.709 180.204 288.3 178.233C285.764 174.852 286.609 170.064 289.991 167.529C307.464 154.853 318.454 134.572 319.864 113.165C300.418 103.588 277.591 103.024 257.864 111.756C253.918 113.446 249.409 111.756 247.718 107.813C246.027 103.869 247.718 99.3623 251.664 97.6722C277.309 86.4051 307.182 87.8135 331.7 101.897C333.954 103.306 335.645 105.841 335.645 108.658C335.645 136.826 322.118 163.304 299.291 179.923C297.6 180.768 295.909 181.331 294.5 181.331Z" fill="#DF2925"/>
<path d="M201.5 177.669C198.118 177.669 195.018 175.416 194.173 172.035C193.045 168.092 195.3 163.867 199.527 162.74C211.364 159.36 219.818 148.374 219.818 135.699C219.818 135.417 219.818 135.417 219.818 135.135C219.818 132.882 219.536 130.91 218.973 128.938C215.873 116.263 204.6 107.531 191.636 107.531C178.673 107.531 167.4 116.263 164.3 128.938C163.736 130.91 163.454 133.164 163.454 135.135C163.454 135.417 163.454 135.417 163.454 135.699C163.454 148.093 171.909 159.36 183.745 162.74C187.691 163.867 190.227 168.092 189.1 172.035C187.973 175.979 183.745 178.514 179.8 177.387C161.2 172.035 148.236 154.853 148.236 135.699C148.236 135.417 148.236 135.135 148.236 134.854C148.236 131.474 148.8 128.375 149.645 125.277C154.436 105.841 171.627 92.3202 191.636 92.3202C211.645 92.3202 228.836 105.841 233.627 125.277C234.473 128.375 234.755 131.474 234.755 134.854C234.755 135.135 234.755 135.417 234.755 135.699C234.755 154.853 221.791 172.035 203.191 177.387C202.909 177.669 202.064 177.669 201.5 177.669Z" fill="#F4F1FF"/>
<path d="M147.109 204.711C139.782 204.711 132.173 202.739 125.409 198.795L125.127 198.514C125.127 198.514 124.845 198.514 124.845 198.232C122.027 196.542 119.209 194.57 116.954 192.317C102.582 178.514 99.4817 156.825 109.627 139.643C119.491 122.46 140.064 114.01 159.227 119.643C162.327 120.488 165.427 121.615 168.245 123.305C168.527 123.305 168.809 123.587 169.091 123.869C185.718 133.446 194.173 153.163 189.382 171.754C188.254 175.979 184.309 178.233 180.082 177.388C175.854 176.261 173.6 172.317 174.445 168.092C177.545 155.98 172.191 143.304 161.2 137.107C161.2 137.107 160.918 137.107 160.918 136.826C159.227 135.699 157.254 134.854 155 134.291C142.6 130.629 129.354 135.981 122.873 147.248C116.391 158.515 118.364 172.599 127.664 181.331C129.073 182.74 130.764 184.148 132.736 185.275L133.018 185.556C143.727 191.753 157.536 190.063 166.554 181.331C169.654 178.514 174.445 178.514 177.264 181.613C180.082 184.711 180.082 189.5 176.982 192.317C169.091 200.485 158.1 204.711 147.109 204.711Z" fill="#F4F1FF"/>
<path d="M147.109 256.258C131.891 256.258 117.518 248.371 109.627 234.569C99.7634 217.386 102.582 195.415 116.954 181.613C119.209 179.359 121.745 177.388 124.845 175.698L125.127 175.416C125.127 175.416 125.127 175.416 125.409 175.134C142.036 165.557 163.454 168.092 177.263 181.613C180.363 184.43 180.363 189.5 177.545 192.317C174.727 195.415 169.654 195.415 166.836 192.598C157.818 183.866 144.291 182.176 133.3 188.373C133.3 188.373 133.018 188.373 133.018 188.655C130.763 189.782 129.073 191.19 127.663 192.598C118.363 201.612 116.391 215.696 122.873 226.963C129.354 238.23 142.6 243.582 155 239.92C156.973 239.357 158.945 238.512 160.918 237.385C164.582 235.414 169.373 236.54 171.345 240.202C173.318 243.864 172.191 248.653 168.527 250.624C165.709 252.314 162.609 253.441 159.227 254.568C155 255.695 151.054 256.258 147.109 256.258Z" fill="#F4F1FF"/>
<path d="M155.845 246.68C152.182 246.68 148.8 243.864 148.236 240.202C148.236 239.638 148.236 239.075 148.236 238.512C148.236 219.358 161.2 202.175 179.8 196.823C183.745 195.697 187.973 197.95 189.1 202.175C190.227 206.119 187.973 210.344 183.745 211.471C171.909 214.851 163.454 225.836 163.454 238.512C163.736 242.455 160.918 246.117 156.973 246.68C156.691 246.68 156.127 246.68 155.845 246.68Z" fill="#F4F1FF"/>
<path d="M164.582 251.47C161.764 251.47 158.946 249.779 157.818 247.244C155.846 243.583 157.536 239.076 161.2 237.104C171.909 230.907 177.546 217.95 174.446 206.119C173.318 201.894 175.855 197.95 180.082 196.824C184.309 195.697 188.255 198.232 189.382 202.457C194.173 221.048 185.718 240.766 169.091 250.343C168.809 250.625 168.527 250.625 167.964 250.906C166.837 251.188 165.709 251.47 164.582 251.47Z" fill="#F4F1FF"/>
<path d="M191.636 281.891C171.627 281.891 154.436 268.37 149.645 248.934C148.8 245.836 148.518 242.456 148.518 239.075C148.518 234.85 151.9 231.47 156.127 231.47C160.354 231.47 163.736 234.85 163.736 239.075C163.736 241.329 164.018 243.301 164.581 245.272C167.681 257.948 178.954 266.68 191.918 266.68C204.881 266.68 216.154 257.948 219.254 245.272C219.818 243.301 220.1 241.047 220.1 239.075C220.1 238.794 220.1 238.794 220.1 238.512C220.1 226.118 211.645 214.851 199.809 211.471C195.863 210.344 193.327 206.119 194.454 202.175C195.581 198.232 199.809 195.697 203.754 196.823C222.354 202.175 235.318 219.358 235.318 238.512C235.318 238.794 235.318 239.075 235.318 239.357C235.318 242.737 234.754 245.836 233.909 248.934C228.836 268.37 211.645 281.891 191.636 281.891Z" fill="#F4F1FF"/>
<path d="M236.164 256.258C232.218 256.258 227.991 255.694 224.045 254.568C220.945 253.723 217.845 252.596 215.027 250.906C214.745 250.906 214.464 250.624 214.182 250.342C197.555 240.765 189.1 221.048 193.891 202.457C195.018 198.232 198.964 195.978 203.191 196.823C207.418 197.95 209.673 201.894 208.827 206.119C205.727 218.231 211.082 230.907 222.073 237.104C222.073 237.104 222.355 237.104 222.355 237.385C224.045 238.512 226.018 239.357 228.273 239.92C240.673 243.582 253.918 238.23 260.4 226.963C265.755 217.668 265.191 206.401 259.836 197.95C259.273 198.232 258.991 198.513 258.427 198.795L258.145 199.077C258.145 199.077 258.145 199.077 257.864 199.359C241.236 208.936 219.818 206.401 206.009 192.88C202.909 190.063 202.909 184.993 205.727 182.176C208.545 179.078 213.618 179.078 216.436 181.894C225.455 190.626 238.982 192.317 249.973 186.12C249.973 186.12 250.255 186.12 250.255 185.838C252.227 184.711 253.918 183.303 255.327 181.894C258.145 179.078 262.936 179.078 266.036 181.894C280.409 195.697 283.509 217.386 273.364 234.85C265.755 248.089 251.382 256.258 236.164 256.258Z" fill="#F4F1FF"/>
<path d="M260.964 194.852C258.991 194.852 257.018 194.007 255.609 192.599C254.2 191.19 252.509 189.782 250.536 188.655C250.536 188.655 250.255 188.655 250.255 188.373C250.255 188.373 250.255 188.373 249.973 188.373C239.264 182.176 225.455 183.866 216.436 192.599C213.336 195.415 208.545 195.415 205.727 192.317C202.909 189.218 202.909 184.43 206.009 181.613C219.818 168.092 241.236 165.557 257.864 175.134L258.145 175.416C258.145 175.416 258.427 175.416 258.427 175.698C258.991 175.979 259.273 176.261 259.836 176.543C265.473 167.811 265.755 156.825 260.4 147.53C253.918 136.263 240.673 130.911 228.273 134.573C226.3 135.136 224.327 135.981 222.355 137.108C222.355 137.108 222.073 137.108 222.073 137.389C211.364 143.586 205.727 156.544 208.827 168.374C209.955 172.599 207.418 176.543 203.191 177.669C198.964 178.796 195.018 176.261 193.891 172.036C189.1 153.445 197.555 133.728 214.182 124.15C214.464 123.869 214.745 123.869 215.027 123.587C217.845 121.897 220.945 120.77 224.045 119.925C243.209 114.292 263.5 122.742 273.364 139.924C283.227 157.107 280.409 179.078 266.036 192.88C264.627 194.007 262.936 194.852 260.964 194.852Z" fill="#F4F1FF"/>
</g>
</svg>
