<svg width="672" height="189" viewBox="0 0 672 189" fill="none" xmlns="http://www.w3.org/2000/svg">
<path d="M28.8518 16.2383C31.2354 16.2383 33.1676 14.4965 33.1676 12.3479C33.1676 10.1993 31.2354 8.45752 28.8518 8.45752C26.4682 8.45752 24.5359 10.1993 24.5359 12.3479C24.5359 14.4965 26.4682 16.2383 28.8518 16.2383Z" fill="#C1121F"/>
<path d="M30.3552 18.0924C29.2798 17.8956 28.1106 17.9043 27.0543 18.1287C19.8791 18.8866 17.5492 26.373 18.2071 32.0812C18.4925 34.5491 22.8084 34.575 22.5201 32.0812C22.2807 30.001 22.3832 26.8616 23.6099 24.6302C23.6099 27.3423 23.6099 30.0545 23.6099 32.7658C23.6099 32.8616 23.6204 32.9513 23.6252 33.0437C23.6223 33.0877 23.6108 33.1248 23.6108 33.1697C23.6108 39.6255 23.5984 46.0787 23.3025 52.5293C23.1713 55.3968 28.1039 55.3856 28.2341 52.5293C28.4658 47.4736 28.5242 42.4153 28.5376 37.3562C28.7713 37.37 29.005 37.37 29.2386 37.3579C29.253 42.417 29.3095 47.4753 29.5393 52.5293C29.6705 55.3856 34.6031 55.3968 34.4709 52.5293C34.175 46.0787 34.1645 39.6255 34.1645 33.1697C34.1645 32.9695 34.1348 32.7873 34.0898 32.6121C34.0831 29.8093 33.9643 27.004 34.0007 24.2029C35.4697 26.4446 35.6037 29.8637 35.349 32.0795C35.0598 34.5715 39.3767 34.5465 39.662 32.0795C40.3352 26.253 37.8933 18.5724 30.3552 18.0924Z" fill="#C1121F"/>
<path d="M67.2348 16.2383C69.6184 16.2383 71.5507 14.4965 71.5507 12.3479C71.5507 10.1993 69.6184 8.45752 67.2348 8.45752C64.8512 8.45752 62.9189 10.1993 62.9189 12.3479C62.9189 14.4965 64.8512 16.2383 67.2348 16.2383Z" fill="#C1121F"/>
<path d="M68.7382 18.0924C67.6628 17.8956 66.4936 17.9043 65.4374 18.1287C58.2621 18.8866 55.9323 26.373 56.5902 32.0812C56.8755 34.5491 61.1914 34.575 60.9032 32.0812C60.6638 30.001 60.7662 26.8616 61.9929 24.6302C61.9929 27.3423 61.9929 30.0545 61.9929 32.7658C61.9929 32.8616 62.0035 32.9513 62.0082 33.0437C62.0054 33.0877 61.9939 33.1248 61.9939 33.1697C61.9939 39.6255 61.9814 46.0787 61.6855 52.5293C61.5543 55.3968 66.4869 55.3856 66.6171 52.5293C66.8489 47.4736 66.9073 42.4153 66.9207 37.3562C67.1544 37.37 67.388 37.37 67.6217 37.3579C67.636 42.417 67.6925 47.4753 67.9223 52.5293C68.0535 55.3856 72.9861 55.3968 72.854 52.5293C72.5581 46.0787 72.5475 39.6255 72.5475 33.1697C72.5475 32.9695 72.5178 32.7873 72.4728 32.6121C72.4661 29.8093 72.3474 27.004 72.3838 24.2029C73.8527 26.4446 73.9868 29.8637 73.7321 32.0795C73.4429 34.5715 77.7597 34.5465 78.0451 32.0795C78.7183 26.253 76.2764 18.5724 68.7382 18.0924Z" fill="#C1121F"/>
<path d="M105.618 16.2383C108.002 16.2383 109.934 14.4965 109.934 12.3479C109.934 10.1993 108.002 8.45752 105.618 8.45752C103.235 8.45752 101.302 10.1993 101.302 12.3479C101.302 14.4965 103.235 16.2383 105.618 16.2383Z" fill="#C1121F"/>
<path d="M107.122 18.0924C106.046 17.8956 104.877 17.9043 103.821 18.1287C96.6454 18.8866 94.3156 26.373 94.9735 32.0812C95.2588 34.5491 99.5747 34.575 99.2865 32.0812C99.0471 30.001 99.1495 26.8616 100.376 24.6302C100.376 27.3423 100.376 30.0545 100.376 32.7658C100.376 32.8616 100.387 32.9513 100.392 33.0437C100.389 33.0877 100.377 33.1248 100.377 33.1697C100.377 39.6255 100.365 46.0787 100.069 52.5293C99.9376 55.3968 104.87 55.3856 105 52.5293C105.232 47.4736 105.291 42.4153 105.304 37.3562C105.538 37.37 105.771 37.37 106.005 37.3579C106.019 42.417 106.076 47.4753 106.306 52.5293C106.437 55.3856 111.369 55.3968 111.237 52.5293C110.941 46.0787 110.931 39.6255 110.931 33.1697C110.931 32.9695 110.901 32.7873 110.856 32.6121C110.849 29.8093 110.731 27.004 110.767 24.2029C112.236 26.4446 112.37 29.8637 112.115 32.0795C111.826 34.5715 116.143 34.5465 116.428 32.0795C117.102 26.253 114.66 18.5724 107.122 18.0924Z" fill="#C1121F"/>
<path d="M144.001 16.2383C146.385 16.2383 148.317 14.4965 148.317 12.3479C148.317 10.1993 146.385 8.45752 144.001 8.45752C141.617 8.45752 139.685 10.1993 139.685 12.3479C139.685 14.4965 141.617 16.2383 144.001 16.2383Z" fill="#C1121F"/>
<path d="M145.505 18.0924C144.429 17.8956 143.26 17.9043 142.204 18.1287C135.028 18.8866 132.699 26.373 133.357 32.0812C133.642 34.5491 137.958 34.575 137.67 32.0812C137.43 30.001 137.533 26.8616 138.759 24.6302C138.759 27.3423 138.759 30.0545 138.759 32.7658C138.759 32.8616 138.77 32.9513 138.775 33.0437C138.772 33.0877 138.76 33.1248 138.76 33.1697C138.76 39.6255 138.748 46.0787 138.452 52.5293C138.321 55.3968 143.253 55.3856 143.384 52.5293C143.615 47.4736 143.674 42.4153 143.687 37.3562C143.921 37.37 144.154 37.37 144.388 37.3579C144.402 42.417 144.459 47.4753 144.689 52.5293C144.82 55.3856 149.752 55.3968 149.62 52.5293C149.324 46.0787 149.314 39.6255 149.314 33.1697C149.314 32.9695 149.284 32.7873 149.239 32.6121C149.232 29.8093 149.114 27.004 149.15 24.2029C150.619 26.4446 150.753 29.8637 150.498 32.0795C150.209 34.5715 154.526 34.5465 154.811 32.0795C155.485 26.253 153.043 18.5724 145.505 18.0924Z" fill="#C1121F"/>
<path d="M182.384 16.2383C184.768 16.2383 186.7 14.4965 186.7 12.3479C186.7 10.1993 184.768 8.45752 182.384 8.45752C180.001 8.45752 178.068 10.1993 178.068 12.3479C178.068 14.4965 180.001 16.2383 182.384 16.2383Z" fill="#C1121F"/>
<path d="M183.888 18.0924C182.812 17.8956 181.643 17.9043 180.587 18.1287C173.412 18.8866 171.082 26.373 171.74 32.0812C172.025 34.5491 176.341 34.575 176.053 32.0812C175.813 30.001 175.916 26.8616 177.143 24.6302C177.143 27.3423 177.143 30.0545 177.143 32.7658C177.143 32.8616 177.153 32.9513 177.158 33.0437C177.155 33.0877 177.144 33.1248 177.144 33.1697C177.144 39.6255 177.131 46.0787 176.835 52.5293C176.704 55.3968 181.637 55.3856 181.767 52.5293C181.999 47.4736 182.057 42.4153 182.07 37.3562C182.304 37.37 182.538 37.37 182.771 37.3579C182.786 42.417 182.842 47.4753 183.072 52.5293C183.203 55.3856 188.136 55.3968 188.004 52.5293C187.708 46.0787 187.697 39.6255 187.697 33.1697C187.697 32.9695 187.668 32.7873 187.622 32.6121C187.616 29.8093 187.497 27.004 187.533 24.2029C189.002 26.4446 189.136 29.8637 188.882 32.0795C188.593 34.5715 192.909 34.5465 193.195 32.0795C193.868 26.253 191.426 18.5724 183.888 18.0924Z" fill="#C1121F"/>
<path d="M220.767 16.2383C223.151 16.2383 225.083 14.4965 225.083 12.3479C225.083 10.1993 223.151 8.45752 220.767 8.45752C218.384 8.45752 216.451 10.1993 216.451 12.3479C216.451 14.4965 218.384 16.2383 220.767 16.2383Z" fill="#C1121F"/>
<path d="M222.271 18.0924C221.196 17.8956 220.026 17.9043 218.97 18.1287C211.795 18.8866 209.465 26.373 210.123 32.0812C210.408 34.5491 214.724 34.575 214.436 32.0812C214.196 30.001 214.299 26.8616 215.526 24.6302C215.526 27.3423 215.526 30.0545 215.526 32.7658C215.526 32.8616 215.536 32.9513 215.541 33.0437C215.538 33.0877 215.527 33.1248 215.527 33.1697C215.527 39.6255 215.514 46.0787 215.218 52.5293C215.087 55.3968 220.02 55.3856 220.15 52.5293C220.382 47.4736 220.44 42.4153 220.453 37.3562C220.687 37.37 220.921 37.37 221.154 37.3579C221.169 42.417 221.225 47.4753 221.455 52.5293C221.586 55.3856 226.519 55.3968 226.387 52.5293C226.091 46.0787 226.08 39.6255 226.08 33.1697C226.08 32.9695 226.051 32.7873 226.006 32.6121C225.999 29.8093 225.88 27.004 225.916 24.2029C227.385 26.4446 227.52 29.8637 227.265 32.0795C226.976 34.5715 231.292 34.5465 231.578 32.0795C232.251 26.253 229.809 18.5724 222.271 18.0924Z" fill="#C1121F"/>
<path d="M259.151 16.2383C261.534 16.2383 263.467 14.4965 263.467 12.3479C263.467 10.1993 261.534 8.45752 259.151 8.45752C256.767 8.45752 254.835 10.1993 254.835 12.3479C254.835 14.4965 256.767 16.2383 259.151 16.2383Z" fill="#C1121F"/>
<path d="M260.654 18.0924C259.579 17.8956 258.409 17.9043 257.353 18.1287C250.178 18.8866 247.848 26.373 248.506 32.0812C248.791 34.5491 253.107 34.575 252.819 32.0812C252.58 30.001 252.682 26.8616 253.909 24.6302C253.909 27.3423 253.909 30.0545 253.909 32.7658C253.909 32.8616 253.919 32.9513 253.924 33.0437C253.921 33.0877 253.91 33.1248 253.91 33.1697C253.91 39.6255 253.897 46.0787 253.601 52.5293C253.47 55.3968 258.403 55.3856 258.533 52.5293C258.765 47.4736 258.823 42.4153 258.836 37.3562C259.07 37.37 259.304 37.37 259.537 37.3579C259.552 42.417 259.608 47.4753 259.838 52.5293C259.969 55.3856 264.902 55.3968 264.77 52.5293C264.474 46.0787 264.463 39.6255 264.463 33.1697C264.463 32.9695 264.434 32.7873 264.389 32.6121C264.382 29.8093 264.263 27.004 264.3 24.2029C265.769 26.4446 265.903 29.8637 265.648 32.0795C265.359 34.5715 269.675 34.5465 269.961 32.0795C270.634 26.253 268.192 18.5724 260.654 18.0924Z" fill="#C1121F"/>
<path d="M297.534 16.2383C299.918 16.2383 301.85 14.4965 301.85 12.3479C301.85 10.1993 299.918 8.45752 297.534 8.45752C295.151 8.45752 293.218 10.1993 293.218 12.3479C293.218 14.4965 295.151 16.2383 297.534 16.2383Z" fill="#C1121F"/>
<path d="M299.037 18.0924C297.962 17.8956 296.793 17.9043 295.736 18.1287C288.561 18.8866 286.231 26.373 286.889 32.0812C287.175 34.5491 291.49 34.575 291.202 32.0812C290.963 30.001 291.065 26.8616 292.292 24.6302C292.292 27.3423 292.292 30.0545 292.292 32.7658C292.292 32.8616 292.303 32.9513 292.307 33.0437C292.304 33.0877 292.293 33.1248 292.293 33.1697C292.293 39.6255 292.281 46.0787 291.985 52.5293C291.853 55.3968 296.786 55.3856 296.916 52.5293C297.148 47.4736 297.206 42.4153 297.22 37.3562C297.453 37.37 297.687 37.37 297.921 37.3579C297.935 42.417 297.992 47.4753 298.221 52.5293C298.353 55.3856 303.285 55.3968 303.153 52.5293C302.857 46.0787 302.847 39.6255 302.847 33.1697C302.847 32.9695 302.817 32.7873 302.772 32.6121C302.765 29.8093 302.646 27.004 302.683 24.2029C304.152 26.4446 304.286 29.8637 304.031 32.0795C303.742 34.5715 308.059 34.5465 308.344 32.0795C309.017 26.253 306.575 18.5724 299.037 18.0924Z" fill="#C1121F"/>
<path d="M335.917 16.2383C338.3 16.2383 340.233 14.4965 340.233 12.3479C340.233 10.1993 338.3 8.45752 335.917 8.45752C333.533 8.45752 331.601 10.1993 331.601 12.3479C331.601 14.4965 333.533 16.2383 335.917 16.2383Z" fill="#C1121F"/>
<path d="M337.42 18.0924C336.345 17.8956 335.176 17.9043 334.12 18.1287C326.944 18.8866 324.614 26.373 325.272 32.0812C325.558 34.5491 329.874 34.575 329.585 32.0812C329.346 30.001 329.448 26.8616 330.675 24.6302C330.675 27.3423 330.675 30.0545 330.675 32.7658C330.675 32.8616 330.686 32.9513 330.69 33.0437C330.687 33.0877 330.676 33.1248 330.676 33.1697C330.676 39.6255 330.664 46.0787 330.368 52.5293C330.236 55.3968 335.169 55.3856 335.299 52.5293C335.531 47.4736 335.589 42.4153 335.603 37.3562C335.836 37.37 336.07 37.37 336.304 37.3579C336.318 42.417 336.375 47.4753 336.604 52.5293C336.736 55.3856 341.668 55.3968 341.536 52.5293C341.24 46.0787 341.23 39.6255 341.23 33.1697C341.23 32.9695 341.2 32.7873 341.155 32.6121C341.148 29.8093 341.03 27.004 341.066 24.2029C342.535 26.4446 342.669 29.8637 342.414 32.0795C342.125 34.5715 346.442 34.5465 346.727 32.0795C347.4 26.253 344.959 18.5724 337.42 18.0924Z" fill="#C1121F"/>
<path d="M374.3 16.2383C376.684 16.2383 378.616 14.4965 378.616 12.3479C378.616 10.1993 376.684 8.45752 374.3 8.45752C371.917 8.45752 369.985 10.1993 369.985 12.3479C369.985 14.4965 371.917 16.2383 374.3 16.2383Z" fill="#C1121F"/>
<path d="M375.804 18.0924C374.728 17.8956 373.559 17.9043 372.503 18.1287C365.328 18.8866 362.998 26.373 363.656 32.0812C363.941 34.5491 368.257 34.575 367.969 32.0812C367.729 30.001 367.832 26.8616 369.058 24.6302C369.058 27.3423 369.058 30.0545 369.058 32.7658C369.058 32.8616 369.069 32.9513 369.074 33.0437C369.071 33.0877 369.059 33.1248 369.059 33.1697C369.059 39.6255 369.047 46.0787 368.751 52.5293C368.62 55.3968 373.552 55.3856 373.683 52.5293C373.914 47.4736 373.973 42.4153 373.986 37.3562C374.22 37.37 374.453 37.37 374.687 37.3579C374.701 42.417 374.758 47.4753 374.988 52.5293C375.119 55.3856 380.052 55.3968 379.919 52.5293C379.623 46.0787 379.613 39.6255 379.613 33.1697C379.613 32.9695 379.583 32.7873 379.538 32.6121C379.532 29.8093 379.413 27.004 379.449 24.2029C380.918 26.4446 381.052 29.8637 380.798 32.0795C380.508 34.5715 384.825 34.5465 385.111 32.0795C385.784 26.253 383.342 18.5724 375.804 18.0924Z" fill="#C1121F"/>
<path d="M412.683 16.2383C415.067 16.2383 416.999 14.4965 416.999 12.3479C416.999 10.1993 415.067 8.45752 412.683 8.45752C410.3 8.45752 408.367 10.1993 408.367 12.3479C408.367 14.4965 410.3 16.2383 412.683 16.2383Z" fill="#C1121F"/>
<path d="M414.187 18.0924C413.111 17.8956 411.942 17.9043 410.886 18.1287C403.711 18.8866 401.381 26.373 402.039 32.0812C402.324 34.5491 406.64 34.575 406.352 32.0812C406.112 30.001 406.215 26.8616 407.441 24.6302C407.441 27.3423 407.441 30.0545 407.441 32.7658C407.441 32.8616 407.452 32.9513 407.457 33.0437C407.454 33.0877 407.442 33.1248 407.442 33.1697C407.442 39.6255 407.43 46.0787 407.134 52.5293C407.003 55.3968 411.935 55.3856 412.066 52.5293C412.297 47.4736 412.356 42.4153 412.369 37.3562C412.603 37.37 412.836 37.37 413.07 37.3579C413.085 42.417 413.141 47.4753 413.371 52.5293C413.502 55.3856 418.435 55.3968 418.302 52.5293C418.007 46.0787 417.996 39.6255 417.996 33.1697C417.996 32.9695 417.966 32.7873 417.921 32.6121C417.915 29.8093 417.796 27.004 417.832 24.2029C419.301 26.4446 419.435 29.8637 419.181 32.0795C418.891 34.5715 423.208 34.5465 423.494 32.0795C424.167 26.253 421.725 18.5724 414.187 18.0924Z" fill="#C1121F"/>
<path d="M451.067 16.2383C453.45 16.2383 455.382 14.4965 455.382 12.3479C455.382 10.1993 453.45 8.45752 451.067 8.45752C448.683 8.45752 446.751 10.1993 446.751 12.3479C446.751 14.4965 448.683 16.2383 451.067 16.2383Z" fill="#C1121F"/>
<path d="M452.57 18.0924C451.494 17.8956 450.325 17.9043 449.269 18.1287C442.094 18.8866 439.764 26.373 440.422 32.0812C440.707 34.5491 445.023 34.575 444.735 32.0812C444.495 30.001 444.598 26.8616 445.824 24.6302C445.824 27.3423 445.824 30.0545 445.824 32.7658C445.824 32.8616 445.835 32.9513 445.84 33.0437C445.837 33.0877 445.825 33.1248 445.825 33.1697C445.825 39.6255 445.813 46.0787 445.517 52.5293C445.386 55.3968 450.318 55.3856 450.449 52.5293C450.68 47.4736 450.739 42.4153 450.752 37.3562C450.986 37.37 451.22 37.37 451.453 37.3579C451.468 42.417 451.524 47.4753 451.754 52.5293C451.885 55.3856 456.818 55.3968 456.686 52.5293C456.39 46.0787 456.379 39.6255 456.379 33.1697C456.379 32.9695 456.349 32.7873 456.304 32.6121C456.298 29.8093 456.179 27.004 456.215 24.2029C457.684 26.4446 457.818 29.8637 457.564 32.0795C457.274 34.5715 461.591 34.5465 461.877 32.0795C462.55 26.253 460.108 18.5724 452.57 18.0924Z" fill="#C1121F"/>
<path d="M489.45 16.2383C491.834 16.2383 493.766 14.4965 493.766 12.3479C493.766 10.1993 491.834 8.45752 489.45 8.45752C487.066 8.45752 485.134 10.1993 485.134 12.3479C485.134 14.4965 487.066 16.2383 489.45 16.2383Z" fill="#C1121F"/>
<path d="M490.953 18.0924C489.878 17.8956 488.708 17.9043 487.652 18.1287C480.477 18.8866 478.147 26.373 478.805 32.0812C479.09 34.5491 483.406 34.575 483.118 32.0812C482.879 30.001 482.981 26.8616 484.208 24.6302C484.208 27.3423 484.208 30.0545 484.208 32.7658C484.208 32.8616 484.218 32.9513 484.223 33.0437C484.22 33.0877 484.209 33.1248 484.209 33.1697C484.209 39.6255 484.196 46.0787 483.9 52.5293C483.769 55.3968 488.702 55.3856 488.832 52.5293C489.064 47.4736 489.122 42.4153 489.136 37.3562C489.369 37.37 489.603 37.37 489.837 37.3579C489.851 42.417 489.907 47.4753 490.137 52.5293C490.268 55.3856 495.201 55.3968 495.069 52.5293C494.773 46.0787 494.762 39.6255 494.762 33.1697C494.762 32.9695 494.733 32.7873 494.688 32.6121C494.681 29.8093 494.562 27.004 494.599 24.2029C496.068 26.4446 496.202 29.8637 495.947 32.0795C495.658 34.5715 499.975 34.5465 500.26 32.0795C500.933 26.253 498.491 18.5724 490.953 18.0924Z" fill="#C1121F"/>
<path d="M527.832 16.2383C530.216 16.2383 532.148 14.4965 532.148 12.3479C532.148 10.1993 530.216 8.45752 527.832 8.45752C525.449 8.45752 523.517 10.1993 523.517 12.3479C523.517 14.4965 525.449 16.2383 527.832 16.2383Z" fill="#C1121F"/>
<path d="M529.336 18.0924C528.261 17.8956 527.092 17.9043 526.035 18.1287C518.86 18.8866 516.53 26.373 517.188 32.0812C517.473 34.5491 521.789 34.575 521.501 32.0812C521.262 30.001 521.364 26.8616 522.591 24.6302C522.591 27.3423 522.591 30.0545 522.591 32.7658C522.591 32.8616 522.601 32.9513 522.606 33.0437C522.603 33.0877 522.592 33.1248 522.592 33.1697C522.592 39.6255 522.579 46.0787 522.283 52.5293C522.152 55.3968 527.085 55.3856 527.215 52.5293C527.447 47.4736 527.505 42.4153 527.519 37.3562C527.752 37.37 527.986 37.37 528.22 37.3579C528.234 42.417 528.29 47.4753 528.52 52.5293C528.651 55.3856 533.584 55.3968 533.452 52.5293C533.156 46.0787 533.145 39.6255 533.145 33.1697C533.145 32.9695 533.116 32.7873 533.071 32.6121C533.064 29.8093 532.945 27.004 532.982 24.2029C534.451 26.4446 534.585 29.8637 534.33 32.0795C534.041 34.5715 538.358 34.5465 538.643 32.0795C539.316 26.253 536.874 18.5724 529.336 18.0924Z" fill="#C1121F"/>
<path d="M566.216 16.2383C568.599 16.2383 570.531 14.4965 570.531 12.3479C570.531 10.1993 568.599 8.45752 566.216 8.45752C563.832 8.45752 561.9 10.1993 561.9 12.3479C561.9 14.4965 563.832 16.2383 566.216 16.2383Z" fill="#C1121F"/>
<path d="M567.719 18.0924C566.644 17.8956 565.475 17.9043 564.418 18.1287C557.243 18.8866 554.913 26.373 555.571 32.0812C555.856 34.5491 560.172 34.575 559.884 32.0812C559.645 30.001 559.747 26.8616 560.974 24.6302C560.974 27.3423 560.974 30.0545 560.974 32.7658C560.974 32.8616 560.984 32.9513 560.989 33.0437C560.986 33.0877 560.975 33.1248 560.975 33.1697C560.975 39.6255 560.962 46.0787 560.666 52.5293C560.535 55.3968 565.468 55.3856 565.598 52.5293C565.83 47.4736 565.888 42.4153 565.902 37.3562C566.135 37.37 566.369 37.37 566.603 37.3579C566.617 42.417 566.673 47.4753 566.903 52.5293C567.034 55.3856 571.967 55.3968 571.835 52.5293C571.539 46.0787 571.528 39.6255 571.528 33.1697C571.528 32.9695 571.499 32.7873 571.454 32.6121C571.447 29.8093 571.328 27.004 571.365 24.2029C572.834 26.4446 572.968 29.8637 572.713 32.0795C572.424 34.5715 576.741 34.5465 577.026 32.0795C577.699 26.253 575.257 18.5724 567.719 18.0924Z" fill="#C1121F"/>
<path d="M604.599 16.2383C606.982 16.2383 608.915 14.4965 608.915 12.3479C608.915 10.1993 606.982 8.45752 604.599 8.45752C602.215 8.45752 600.283 10.1993 600.283 12.3479C600.283 14.4965 602.215 16.2383 604.599 16.2383Z" fill="#C1121F"/>
<path d="M606.102 18.0924C605.027 17.8956 603.858 17.9043 602.802 18.1287C595.626 18.8866 593.297 26.373 593.954 32.0812C594.24 34.5491 598.556 34.575 598.267 32.0812C598.028 30.001 598.13 26.8616 599.357 24.6302C599.357 27.3423 599.357 30.0545 599.357 32.7658C599.357 32.8616 599.368 32.9513 599.372 33.0437C599.37 33.0877 599.358 33.1248 599.358 33.1697C599.358 39.6255 599.346 46.0787 599.05 52.5293C598.919 55.3968 603.851 55.3856 603.981 52.5293C604.213 47.4736 604.272 42.4153 604.285 37.3562C604.519 37.37 604.752 37.37 604.986 37.3579C605 42.417 605.057 47.4753 605.287 52.5293C605.418 55.3856 610.35 55.3968 610.218 52.5293C609.922 46.0787 609.912 39.6255 609.912 33.1697C609.912 32.9695 609.882 32.7873 609.837 32.6121C609.83 29.8093 609.712 27.004 609.748 24.2029C611.217 26.4446 611.351 29.8637 611.096 32.0795C610.807 34.5715 615.124 34.5465 615.409 32.0795C616.083 26.253 613.641 18.5724 606.102 18.0924Z" fill="#C1121F"/>
<path d="M642.982 16.2383C645.366 16.2383 647.298 14.4965 647.298 12.3479C647.298 10.1993 645.366 8.45752 642.982 8.45752C640.599 8.45752 638.667 10.1993 638.667 12.3479C638.667 14.4965 640.599 16.2383 642.982 16.2383Z" fill="#C1121F"/>
<path d="M644.486 18.0924C643.41 17.8956 642.241 17.9043 641.185 18.1287C634.01 18.8866 631.68 26.373 632.338 32.0812C632.623 34.5491 636.939 34.575 636.651 32.0812C636.411 30.001 636.514 26.8616 637.74 24.6302C637.74 27.3423 637.74 30.0545 637.74 32.7658C637.74 32.8616 637.751 32.9513 637.756 33.0437C637.753 33.0877 637.741 33.1248 637.741 33.1697C637.741 39.6255 637.729 46.0787 637.433 52.5293C637.302 55.3968 642.234 55.3856 642.365 52.5293C642.596 47.4736 642.655 42.4153 642.668 37.3562C642.902 37.37 643.135 37.37 643.369 37.3579C643.383 42.417 643.44 47.4753 643.67 52.5293C643.801 55.3856 648.734 55.3968 648.601 52.5293C648.306 46.0787 648.295 39.6255 648.295 33.1697C648.295 32.9695 648.265 32.7873 648.22 32.6121C648.214 29.8093 648.095 27.004 648.131 24.2029C649.6 26.4446 649.734 29.8637 649.48 32.0795C649.19 34.5715 653.507 34.5465 653.793 32.0795C654.466 26.253 652.024 18.5724 644.486 18.0924Z" fill="#C1121F"/>
<path d="M28.852 79.1716C31.2356 79.1716 33.1679 77.4299 33.1679 75.2813C33.1679 73.1327 31.2356 71.3909 28.852 71.3909C26.4684 71.3909 24.5361 73.1327 24.5361 75.2813C24.5361 77.4299 26.4684 79.1716 28.852 79.1716Z" fill="#C1121F"/>
<path d="M30.3552 81.0258C29.2798 80.829 28.1106 80.8376 27.0543 81.062C19.8791 81.8199 17.5492 89.3063 18.2071 95.0146C18.4925 97.4824 22.8084 97.5083 22.5201 95.0146C22.2807 92.9343 22.3832 89.7949 23.6099 87.5636C23.6099 90.2757 23.6099 92.9878 23.6099 95.6991C23.6099 95.7949 23.6204 95.8847 23.6252 95.977C23.6223 96.0211 23.6108 96.0582 23.6108 96.1031C23.6108 102.559 23.5984 109.012 23.3025 115.463C23.1713 118.33 28.1039 118.319 28.2341 115.463C28.4658 110.407 28.5242 105.349 28.5376 100.29C28.7713 100.303 29.005 100.303 29.2386 100.291C29.253 105.35 29.3095 110.409 29.5393 115.463C29.6705 118.319 34.6031 118.33 34.4709 115.463C34.175 109.012 34.1645 102.559 34.1645 96.1031C34.1645 95.9028 34.1348 95.7207 34.0898 95.5455C34.0831 92.7427 33.9643 89.9373 34.0007 87.1363C35.4697 89.378 35.6037 92.7971 35.349 95.0129C35.0598 97.5049 39.3767 97.4799 39.662 95.0129C40.3352 89.1864 37.8933 81.5057 30.3552 81.0258Z" fill="#C1121F"/>
<path d="M67.2348 79.1716C69.6184 79.1716 71.5507 77.4299 71.5507 75.2813C71.5507 73.1327 69.6184 71.3909 67.2348 71.3909C64.8512 71.3909 62.9189 73.1327 62.9189 75.2813C62.9189 77.4299 64.8512 79.1716 67.2348 79.1716Z" fill="#C1121F"/>
<path d="M68.7382 81.0258C67.6628 80.829 66.4936 80.8376 65.4374 81.062C58.2621 81.8199 55.9323 89.3063 56.5902 95.0146C56.8755 97.4824 61.1914 97.5083 60.9032 95.0146C60.6638 92.9343 60.7662 89.7949 61.9929 87.5636C61.9929 90.2757 61.9929 92.9878 61.9929 95.6991C61.9929 95.7949 62.0035 95.8847 62.0082 95.977C62.0054 96.0211 61.9939 96.0582 61.9939 96.1031C61.9939 102.559 61.9814 109.012 61.6855 115.463C61.5543 118.33 66.4869 118.319 66.6171 115.463C66.8489 110.407 66.9073 105.349 66.9207 100.29C67.1544 100.303 67.388 100.303 67.6217 100.291C67.636 105.35 67.6925 110.409 67.9223 115.463C68.0535 118.319 72.9861 118.33 72.854 115.463C72.5581 109.012 72.5475 102.559 72.5475 96.1031C72.5475 95.9028 72.5178 95.7207 72.4728 95.5455C72.4661 92.7427 72.3474 89.9373 72.3838 87.1363C73.8527 89.378 73.9868 92.7971 73.7321 95.0129C73.4429 97.5049 77.7597 97.4799 78.0451 95.0129C78.7183 89.1864 76.2764 81.5057 68.7382 81.0258Z" fill="#C1121F"/>
<path d="M105.618 79.1716C108.002 79.1716 109.934 77.4299 109.934 75.2813C109.934 73.1327 108.002 71.3909 105.618 71.3909C103.235 71.3909 101.302 73.1327 101.302 75.2813C101.302 77.4299 103.235 79.1716 105.618 79.1716Z" fill="#C1121F"/>
<path d="M107.122 81.0258C106.046 80.829 104.877 80.8376 103.821 81.062C96.6454 81.8199 94.3156 89.3063 94.9735 95.0146C95.2588 97.4824 99.5747 97.5083 99.2865 95.0146C99.0471 92.9343 99.1495 89.7949 100.376 87.5636C100.376 90.2757 100.376 92.9878 100.376 95.6991C100.376 95.7949 100.387 95.8847 100.392 95.977C100.389 96.0211 100.377 96.0582 100.377 96.1031C100.377 102.559 100.365 109.012 100.069 115.463C99.9376 118.33 104.87 118.319 105 115.463C105.232 110.407 105.291 105.349 105.304 100.29C105.538 100.303 105.771 100.303 106.005 100.291C106.019 105.35 106.076 110.409 106.306 115.463C106.437 118.319 111.369 118.33 111.237 115.463C110.941 109.012 110.931 102.559 110.931 96.1031C110.931 95.9028 110.901 95.7207 110.856 95.5455C110.849 92.7427 110.731 89.9373 110.767 87.1363C112.236 89.378 112.37 92.7971 112.115 95.0129C111.826 97.5049 116.143 97.4799 116.428 95.0129C117.102 89.1864 114.66 81.5057 107.122 81.0258Z" fill="#C1121F"/>
<path d="M144.001 79.1716C146.385 79.1716 148.317 77.4299 148.317 75.2813C148.317 73.1327 146.385 71.3909 144.001 71.3909C141.617 71.3909 139.685 73.1327 139.685 75.2813C139.685 77.4299 141.617 79.1716 144.001 79.1716Z" fill="#C1121F"/>
<path d="M145.505 81.0258C144.429 80.829 143.26 80.8376 142.204 81.062C135.028 81.8199 132.699 89.3063 133.357 95.0146C133.642 97.4824 137.958 97.5083 137.67 95.0146C137.43 92.9343 137.533 89.7949 138.759 87.5636C138.759 90.2757 138.759 92.9878 138.759 95.6991C138.759 95.7949 138.77 95.8847 138.775 95.977C138.772 96.0211 138.76 96.0582 138.76 96.1031C138.76 102.559 138.748 109.012 138.452 115.463C138.321 118.33 143.253 118.319 143.384 115.463C143.615 110.407 143.674 105.349 143.687 100.29C143.921 100.303 144.154 100.303 144.388 100.291C144.402 105.35 144.459 110.409 144.689 115.463C144.82 118.319 149.752 118.33 149.62 115.463C149.324 109.012 149.314 102.559 149.314 96.1031C149.314 95.9028 149.284 95.7207 149.239 95.5455C149.232 92.7427 149.114 89.9373 149.15 87.1363C150.619 89.378 150.753 92.7971 150.498 95.0129C150.209 97.5049 154.526 97.4799 154.811 95.0129C155.485 89.1864 153.043 81.5057 145.505 81.0258Z" fill="#C1121F"/>
<path d="M182.384 79.1716C184.768 79.1716 186.7 77.4299 186.7 75.2813C186.7 73.1327 184.768 71.3909 182.384 71.3909C180.001 71.3909 178.068 73.1327 178.068 75.2813C178.068 77.4299 180.001 79.1716 182.384 79.1716Z" fill="#C1121F"/>
<path d="M183.888 81.0258C182.812 80.829 181.643 80.8376 180.587 81.062C173.412 81.8199 171.082 89.3063 171.74 95.0146C172.025 97.4824 176.341 97.5083 176.053 95.0146C175.813 92.9343 175.916 89.7949 177.143 87.5636C177.143 90.2757 177.143 92.9878 177.143 95.6991C177.143 95.7949 177.153 95.8847 177.158 95.977C177.155 96.0211 177.144 96.0582 177.144 96.1031C177.144 102.559 177.131 109.012 176.835 115.463C176.704 118.33 181.637 118.319 181.767 115.463C181.999 110.407 182.057 105.349 182.07 100.29C182.304 100.303 182.538 100.303 182.771 100.291C182.786 105.35 182.842 110.409 183.072 115.463C183.203 118.319 188.136 118.33 188.004 115.463C187.708 109.012 187.697 102.559 187.697 96.1031C187.697 95.9028 187.668 95.7207 187.622 95.5455C187.616 92.7427 187.497 89.9373 187.533 87.1363C189.002 89.378 189.136 92.7971 188.882 95.0129C188.593 97.5049 192.909 97.4799 193.195 95.0129C193.868 89.1864 191.426 81.5057 183.888 81.0258Z" fill="#C1121F"/>
<path d="M220.768 79.1716C223.151 79.1716 225.083 77.4299 225.083 75.2813C225.083 73.1327 223.151 71.3909 220.768 71.3909C218.384 71.3909 216.452 73.1327 216.452 75.2813C216.452 77.4299 218.384 79.1716 220.768 79.1716Z" fill="#C1121F"/>
<path d="M222.271 81.0258C221.196 80.829 220.026 80.8376 218.97 81.062C211.795 81.8199 209.465 89.3063 210.123 95.0146C210.408 97.4824 214.724 97.5083 214.436 95.0146C214.196 92.9343 214.299 89.7949 215.526 87.5636C215.526 90.2757 215.526 92.9878 215.526 95.6991C215.526 95.7949 215.536 95.8847 215.541 95.977C215.538 96.0211 215.527 96.0582 215.527 96.1031C215.527 102.559 215.514 109.012 215.218 115.463C215.087 118.33 220.02 118.319 220.15 115.463C220.382 110.407 220.44 105.349 220.453 100.29C220.687 100.303 220.921 100.303 221.154 100.291C221.169 105.35 221.225 110.409 221.455 115.463C221.586 118.319 226.519 118.33 226.387 115.463C226.091 109.012 226.08 102.559 226.08 96.1031C226.08 95.9028 226.051 95.7207 226.006 95.5455C225.999 92.7427 225.88 89.9373 225.916 87.1363C227.385 89.378 227.52 92.7971 227.265 95.0129C226.976 97.5049 231.292 97.4799 231.578 95.0129C232.251 89.1864 229.809 81.5057 222.271 81.0258Z" fill="#C1121F"/>
<path d="M259.15 79.1716C261.534 79.1716 263.466 77.4299 263.466 75.2813C263.466 73.1327 261.534 71.3909 259.15 71.3909C256.767 71.3909 254.834 73.1327 254.834 75.2813C254.834 77.4299 256.767 79.1716 259.15 79.1716Z" fill="#C1121F"/>
<path d="M260.654 81.0258C259.579 80.829 258.409 80.8376 257.353 81.062C250.178 81.8199 247.848 89.3063 248.506 95.0146C248.791 97.4824 253.107 97.5083 252.819 95.0146C252.58 92.9343 252.682 89.7949 253.909 87.5636C253.909 90.2757 253.909 92.9878 253.909 95.6991C253.909 95.7949 253.919 95.8847 253.924 95.977C253.921 96.0211 253.91 96.0582 253.91 96.1031C253.91 102.559 253.897 109.012 253.601 115.463C253.47 118.33 258.403 118.319 258.533 115.463C258.765 110.407 258.823 105.349 258.836 100.29C259.07 100.303 259.304 100.303 259.537 100.291C259.552 105.35 259.608 110.409 259.838 115.463C259.969 118.319 264.902 118.33 264.77 115.463C264.474 109.012 264.463 102.559 264.463 96.1031C264.463 95.9028 264.434 95.7207 264.389 95.5455C264.382 92.7427 264.263 89.9373 264.3 87.1363C265.769 89.378 265.903 92.7971 265.648 95.0129C265.359 97.5049 269.675 97.4799 269.961 95.0129C270.634 89.1864 268.192 81.5057 260.654 81.0258Z" fill="#C1121F"/>
<path d="M297.534 79.1716C299.917 79.1716 301.85 77.4299 301.85 75.2813C301.85 73.1327 299.917 71.3909 297.534 71.3909C295.15 71.3909 293.218 73.1327 293.218 75.2813C293.218 77.4299 295.15 79.1716 297.534 79.1716Z" fill="#C1121F"/>
<path d="M299.037 81.0258C297.962 80.829 296.793 80.8376 295.736 81.062C288.561 81.8199 286.231 89.3063 286.889 95.0146C287.175 97.4824 291.49 97.5083 291.202 95.0146C290.963 92.9343 291.065 89.7949 292.292 87.5636C292.292 90.2757 292.292 92.9878 292.292 95.6991C292.292 95.7949 292.303 95.8847 292.307 95.977C292.304 96.0211 292.293 96.0582 292.293 96.1031C292.293 102.559 292.281 109.012 291.985 115.463C291.853 118.33 296.786 118.319 296.916 115.463C297.148 110.407 297.206 105.349 297.22 100.29C297.453 100.303 297.687 100.303 297.921 100.291C297.935 105.35 297.992 110.409 298.221 115.463C298.353 118.319 303.285 118.33 303.153 115.463C302.857 109.012 302.847 102.559 302.847 96.1031C302.847 95.9028 302.817 95.7207 302.772 95.5455C302.765 92.7427 302.646 89.9373 302.683 87.1363C304.152 89.378 304.286 92.7971 304.031 95.0129C303.742 97.5049 308.059 97.4799 308.344 95.0129C309.017 89.1864 306.575 81.5057 299.037 81.0258Z" fill="#C1121F"/>
<path d="M335.917 79.1716C338.301 79.1716 340.233 77.4299 340.233 75.2813C340.233 73.1327 338.301 71.3909 335.917 71.3909C333.534 71.3909 331.601 73.1327 331.601 75.2813C331.601 77.4299 333.534 79.1716 335.917 79.1716Z" fill="#C1121F"/>
<path d="M337.42 81.0258C336.345 80.829 335.176 80.8376 334.12 81.062C326.944 81.8199 324.614 89.3063 325.272 95.0146C325.558 97.4824 329.874 97.5083 329.585 95.0146C329.346 92.9343 329.448 89.7949 330.675 87.5636C330.675 90.2757 330.675 92.9878 330.675 95.6991C330.675 95.7949 330.686 95.8847 330.69 95.977C330.687 96.0211 330.676 96.0582 330.676 96.1031C330.676 102.559 330.664 109.012 330.368 115.463C330.236 118.33 335.169 118.319 335.299 115.463C335.531 110.407 335.589 105.349 335.603 100.29C335.836 100.303 336.07 100.303 336.304 100.291C336.318 105.35 336.375 110.409 336.604 115.463C336.736 118.319 341.668 118.33 341.536 115.463C341.24 109.012 341.23 102.559 341.23 96.1031C341.23 95.9028 341.2 95.7207 341.155 95.5455C341.148 92.7427 341.03 89.9373 341.066 87.1363C342.535 89.378 342.669 92.7971 342.414 95.0129C342.125 97.5049 346.442 97.4799 346.727 95.0129C347.4 89.1864 344.959 81.5057 337.42 81.0258Z" fill="#C1121F"/>
<path d="M374.3 79.1716C376.684 79.1716 378.616 77.4299 378.616 75.2813C378.616 73.1327 376.684 71.3909 374.3 71.3909C371.917 71.3909 369.985 73.1327 369.985 75.2813C369.985 77.4299 371.917 79.1716 374.3 79.1716Z" fill="#C1121F"/>
<path d="M375.804 81.0258C374.728 80.829 373.559 80.8376 372.503 81.062C365.328 81.8199 362.998 89.3063 363.656 95.0146C363.941 97.4824 368.257 97.5083 367.969 95.0146C367.729 92.9343 367.832 89.7949 369.058 87.5636C369.058 90.2757 369.058 92.9878 369.058 95.6991C369.058 95.7949 369.069 95.8847 369.074 95.977C369.071 96.0211 369.059 96.0582 369.059 96.1031C369.059 102.559 369.047 109.012 368.751 115.463C368.62 118.33 373.552 118.319 373.683 115.463C373.914 110.407 373.973 105.349 373.986 100.29C374.22 100.303 374.453 100.303 374.687 100.291C374.701 105.35 374.758 110.409 374.988 115.463C375.119 118.319 380.052 118.33 379.919 115.463C379.623 109.012 379.613 102.559 379.613 96.1031C379.613 95.9028 379.583 95.7207 379.538 95.5455C379.532 92.7427 379.413 89.9373 379.449 87.1363C380.918 89.378 381.052 92.7971 380.798 95.0129C380.508 97.5049 384.825 97.4799 385.111 95.0129C385.784 89.1864 383.342 81.5057 375.804 81.0258Z" fill="#C1121F"/>
<path d="M412.684 79.1716C415.067 79.1716 416.999 77.4299 416.999 75.2813C416.999 73.1327 415.067 71.3909 412.684 71.3909C410.3 71.3909 408.368 73.1327 408.368 75.2813C408.368 77.4299 410.3 79.1716 412.684 79.1716Z" fill="#C1121F"/>
<path d="M414.187 81.0258C413.111 80.829 411.942 80.8376 410.886 81.062C403.711 81.8199 401.381 89.3063 402.039 95.0146C402.324 97.4824 406.64 97.5083 406.352 95.0146C406.112 92.9343 406.215 89.7949 407.441 87.5636C407.441 90.2757 407.441 92.9878 407.441 95.6991C407.441 95.7949 407.452 95.8847 407.457 95.977C407.454 96.0211 407.442 96.0582 407.442 96.1031C407.442 102.559 407.43 109.012 407.134 115.463C407.003 118.33 411.935 118.319 412.066 115.463C412.297 110.407 412.356 105.349 412.369 100.29C412.603 100.303 412.836 100.303 413.07 100.291C413.085 105.35 413.141 110.409 413.371 115.463C413.502 118.319 418.435 118.33 418.302 115.463C418.007 109.012 417.996 102.559 417.996 96.1031C417.996 95.9028 417.966 95.7207 417.921 95.5455C417.915 92.7427 417.796 89.9373 417.832 87.1363C419.301 89.378 419.435 92.7971 419.181 95.0129C418.891 97.5049 423.208 97.4799 423.494 95.0129C424.167 89.1864 421.725 81.5057 414.187 81.0258Z" fill="#C1121F"/>
<path d="M451.066 79.1716C453.45 79.1716 455.382 77.4299 455.382 75.2813C455.382 73.1327 453.45 71.3909 451.066 71.3909C448.683 71.3909 446.75 73.1327 446.75 75.2813C446.75 77.4299 448.683 79.1716 451.066 79.1716Z" fill="#C1121F"/>
<path d="M452.57 81.0258C451.494 80.829 450.325 80.8376 449.269 81.062C442.094 81.8199 439.764 89.3063 440.422 95.0146C440.707 97.4824 445.023 97.5083 444.735 95.0146C444.495 92.9343 444.598 89.7949 445.824 87.5636C445.824 90.2757 445.824 92.9878 445.824 95.6991C445.824 95.7949 445.835 95.8847 445.84 95.977C445.837 96.0211 445.825 96.0582 445.825 96.1031C445.825 102.559 445.813 109.012 445.517 115.463C445.386 118.33 450.318 118.319 450.449 115.463C450.68 110.407 450.739 105.349 450.752 100.29C450.986 100.303 451.22 100.303 451.453 100.291C451.468 105.35 451.524 110.409 451.754 115.463C451.885 118.319 456.818 118.33 456.686 115.463C456.39 109.012 456.379 102.559 456.379 96.1031C456.379 95.9028 456.349 95.7207 456.304 95.5455C456.298 92.7427 456.179 89.9373 456.215 87.1363C457.684 89.378 457.818 92.7971 457.564 95.0129C457.274 97.5049 461.591 97.4799 461.877 95.0129C462.55 89.1864 460.108 81.5057 452.57 81.0258Z" fill="#C1121F"/>
<path d="M489.45 79.1716C491.833 79.1716 493.766 77.4299 493.766 75.2813C493.766 73.1327 491.833 71.3909 489.45 71.3909C487.066 71.3909 485.134 73.1327 485.134 75.2813C485.134 77.4299 487.066 79.1716 489.45 79.1716Z" fill="#C1121F"/>
<path d="M490.953 81.0258C489.878 80.829 488.708 80.8376 487.652 81.062C480.477 81.8199 478.147 89.3063 478.805 95.0146C479.09 97.4824 483.406 97.5083 483.118 95.0146C482.879 92.9343 482.981 89.7949 484.208 87.5636C484.208 90.2757 484.208 92.9878 484.208 95.6991C484.208 95.7949 484.218 95.8847 484.223 95.977C484.22 96.0211 484.209 96.0582 484.209 96.1031C484.209 102.559 484.196 109.012 483.9 115.463C483.769 118.33 488.702 118.319 488.832 115.463C489.064 110.407 489.122 105.349 489.136 100.29C489.369 100.303 489.603 100.303 489.837 100.291C489.851 105.35 489.907 110.409 490.137 115.463C490.268 118.319 495.201 118.33 495.069 115.463C494.773 109.012 494.762 102.559 494.762 96.1031C494.762 95.9028 494.733 95.7207 494.688 95.5455C494.681 92.7427 494.562 89.9373 494.599 87.1363C496.068 89.378 496.202 92.7971 495.947 95.0129C495.658 97.5049 499.975 97.4799 500.26 95.0129C500.933 89.1864 498.491 81.5057 490.953 81.0258Z" fill="#C1121F"/>
<path d="M527.833 79.1721C530.216 79.1721 532.149 77.4303 532.149 75.2817C532.149 73.1331 530.216 71.3914 527.833 71.3914C525.449 71.3914 523.517 73.1331 523.517 75.2817C523.517 77.4303 525.449 79.1721 527.833 79.1721Z" fill="#C1121F"/>
<path d="M529.336 81.0258C528.261 80.829 527.092 80.8376 526.035 81.062C518.86 81.8199 516.53 89.3063 517.188 95.0146C517.473 97.4824 521.789 97.5083 521.501 95.0146C521.262 92.9343 521.364 89.7949 522.591 87.5636C522.591 90.2757 522.591 92.9878 522.591 95.6991C522.591 95.7949 522.601 95.8847 522.606 95.977C522.603 96.0211 522.592 96.0582 522.592 96.1031C522.592 102.559 522.579 109.012 522.283 115.463C522.152 118.33 527.085 118.319 527.215 115.463C527.447 110.407 527.505 105.349 527.519 100.29C527.752 100.303 527.986 100.303 528.22 100.291C528.234 105.35 528.29 110.409 528.52 115.463C528.651 118.319 533.584 118.33 533.452 115.463C533.156 109.012 533.145 102.559 533.145 96.1031C533.145 95.9028 533.116 95.7207 533.071 95.5455C533.064 92.7427 532.945 89.9373 532.982 87.1363C534.451 89.378 534.585 92.7971 534.33 95.0129C534.041 97.5049 538.358 97.4799 538.643 95.0129C539.316 89.1864 536.874 81.5057 529.336 81.0258Z" fill="#C1121F"/>
<path d="M566.216 79.1721C568.599 79.1721 570.531 77.4303 570.531 75.2817C570.531 73.1331 568.599 71.3914 566.216 71.3914C563.832 71.3914 561.9 73.1331 561.9 75.2817C561.9 77.4303 563.832 79.1721 566.216 79.1721Z" fill="#C1121F"/>
<path d="M567.719 81.0258C566.644 80.829 565.475 80.8376 564.418 81.062C557.243 81.8199 554.913 89.3063 555.571 95.0146C555.856 97.4824 560.172 97.5083 559.884 95.0146C559.645 92.9343 559.747 89.7949 560.974 87.5636C560.974 90.2757 560.974 92.9878 560.974 95.6991C560.974 95.7949 560.984 95.8847 560.989 95.977C560.986 96.0211 560.975 96.0582 560.975 96.1031C560.975 102.559 560.962 109.012 560.666 115.463C560.535 118.33 565.468 118.319 565.598 115.463C565.83 110.407 565.888 105.349 565.902 100.29C566.135 100.303 566.369 100.303 566.603 100.291C566.617 105.35 566.673 110.409 566.903 115.463C567.034 118.319 571.967 118.33 571.835 115.463C571.539 109.012 571.528 102.559 571.528 96.1031C571.528 95.9028 571.499 95.7207 571.454 95.5455C571.447 92.7427 571.328 89.9373 571.365 87.1363C572.834 89.378 572.968 92.7971 572.713 95.0129C572.424 97.5049 576.741 97.4799 577.026 95.0129C577.699 89.1864 575.257 81.5057 567.719 81.0258Z" fill="#C1121F"/>
<path d="M604.599 79.1721C606.983 79.1721 608.915 77.4303 608.915 75.2817C608.915 73.1331 606.983 71.3914 604.599 71.3914C602.216 71.3914 600.283 73.1331 600.283 75.2817C600.283 77.4303 602.216 79.1721 604.599 79.1721Z" fill="#C1121F"/>
<path d="M606.102 81.0258C605.027 80.829 603.858 80.8376 602.802 81.062C595.626 81.8199 593.297 89.3063 593.954 95.0146C594.24 97.4824 598.556 97.5083 598.267 95.0146C598.028 92.9343 598.13 89.7949 599.357 87.5636C599.357 90.2757 599.357 92.9878 599.357 95.6991C599.357 95.7949 599.368 95.8847 599.372 95.977C599.37 96.0211 599.358 96.0582 599.358 96.1031C599.358 102.559 599.346 109.012 599.05 115.463C598.919 118.33 603.851 118.319 603.981 115.463C604.213 110.407 604.272 105.349 604.285 100.29C604.519 100.303 604.752 100.303 604.986 100.291C605 105.35 605.057 110.409 605.287 115.463C605.418 118.319 610.35 118.33 610.218 115.463C609.922 109.012 609.912 102.559 609.912 96.1031C609.912 95.9028 609.882 95.7207 609.837 95.5455C609.83 92.7427 609.712 89.9373 609.748 87.1363C611.217 89.378 611.351 92.7971 611.096 95.0129C610.807 97.5049 615.124 97.4799 615.409 95.0129C616.083 89.1864 613.641 81.5057 606.102 81.0258Z" fill="#C1121F"/>
<path d="M642.982 79.1721C645.366 79.1721 647.298 77.4303 647.298 75.2817C647.298 73.1331 645.366 71.3914 642.982 71.3914C640.598 71.3914 638.666 73.1331 638.666 75.2817C638.666 77.4303 640.598 79.1721 642.982 79.1721Z" fill="#C1121F"/>
<path d="M644.486 81.0258C643.41 80.829 642.241 80.8376 641.185 81.062C634.009 81.8199 631.68 89.3063 632.337 95.0146C632.623 97.4824 636.939 97.5083 636.65 95.0146C636.411 92.9343 636.514 89.7949 637.74 87.5636C637.74 90.2757 637.74 92.9878 637.74 95.6991C637.74 95.7949 637.751 95.8847 637.756 95.977C637.753 96.0211 637.741 96.0582 637.741 96.1031C637.741 102.559 637.729 109.012 637.433 115.463C637.302 118.33 642.234 118.319 642.364 115.463C642.596 110.407 642.655 105.349 642.668 100.29C642.902 100.303 643.135 100.303 643.369 100.291C643.383 105.35 643.44 110.409 643.67 115.463C643.801 118.319 648.733 118.33 648.601 115.463C648.305 109.012 648.295 102.559 648.295 96.1031C648.295 95.9028 648.265 95.7207 648.22 95.5455C648.213 92.7427 648.095 89.9373 648.131 87.1363C649.6 89.378 649.734 92.7971 649.479 95.0129C649.19 97.5049 653.507 97.4799 653.792 95.0129C654.466 89.1864 652.024 81.5057 644.486 81.0258Z" fill="#C1121F"/>
<path d="M48.0432 142.106C50.4268 142.106 52.3591 140.364 52.3591 138.215C52.3591 136.067 50.4268 134.325 48.0432 134.325C45.6596 134.325 43.7273 136.067 43.7273 138.215C43.7273 140.364 45.6596 142.106 48.0432 142.106Z" fill="#C1121F"/>
<path d="M49.5468 143.959C48.4714 143.763 47.3022 143.771 46.246 143.996C39.0707 144.754 36.7409 152.24 37.3988 157.948C37.6841 160.416 42 160.442 41.7118 157.948C41.4724 155.868 41.5748 152.728 42.8015 150.497C42.8015 153.209 42.8015 155.921 42.8015 158.633C42.8015 158.729 42.812 158.818 42.8168 158.911C42.814 158.955 42.8025 158.992 42.8025 159.037C42.8025 165.492 42.79 171.946 42.4941 178.396C42.3629 181.264 47.2955 181.253 47.4257 178.396C47.6575 173.341 47.7159 168.282 47.7293 163.223C47.9629 163.237 48.1966 163.237 48.4303 163.225C48.4446 168.284 48.5011 173.342 48.7309 178.396C48.8621 181.253 53.7947 181.264 53.6626 178.396C53.3667 171.946 53.3561 165.492 53.3561 159.037C53.3561 158.836 53.3264 158.654 53.2814 158.479C53.2747 155.676 53.156 152.871 53.1924 150.07C54.6613 152.312 54.7954 155.731 54.5407 157.946C54.2515 160.438 58.5683 160.413 58.8537 157.946C59.5269 152.12 57.085 144.439 49.5468 143.959Z" fill="#C1121F"/>
<path d="M86.4267 142.106C88.8103 142.106 90.7426 140.364 90.7426 138.215C90.7426 136.067 88.8103 134.325 86.4267 134.325C84.0431 134.325 82.1108 136.067 82.1108 138.215C82.1108 140.364 84.0431 142.106 86.4267 142.106Z" fill="#C1121F"/>
<path d="M87.9299 143.959C86.8545 143.763 85.6853 143.771 84.629 143.996C77.4538 144.754 75.124 152.24 75.7818 157.948C76.0672 160.416 80.3831 160.442 80.0948 157.948C79.8554 155.868 79.9579 152.728 81.1846 150.497C81.1846 153.209 81.1846 155.921 81.1846 158.633C81.1846 158.729 81.1951 158.818 81.1999 158.911C81.197 158.955 81.1855 158.992 81.1855 159.037C81.1855 165.492 81.1731 171.946 80.8772 178.396C80.746 181.264 85.6786 181.253 85.8088 178.396C86.0405 173.341 86.0989 168.282 86.1124 163.223C86.346 163.237 86.5797 163.237 86.8133 163.225C86.8277 168.284 86.8842 173.342 87.114 178.396C87.2452 181.253 92.1778 181.264 92.0456 178.396C91.7497 171.946 91.7392 165.492 91.7392 159.037C91.7392 158.836 91.7095 158.654 91.6645 158.479C91.6578 155.676 91.539 152.871 91.5754 150.07C93.0444 152.312 93.1784 155.731 92.9237 157.946C92.6345 160.438 96.9514 160.413 97.2367 157.946C97.9099 152.12 95.4681 144.439 87.9299 143.959Z" fill="#C1121F"/>
<path d="M124.81 142.106C127.194 142.106 129.126 140.364 129.126 138.215C129.126 136.067 127.194 134.325 124.81 134.325C122.426 134.325 120.494 136.067 120.494 138.215C120.494 140.364 122.426 142.106 124.81 142.106Z" fill="#C1121F"/>
<path d="M126.313 143.959C125.238 143.763 124.069 143.771 123.012 143.996C115.837 144.754 113.507 152.24 114.165 157.948C114.45 160.416 118.766 160.442 118.478 157.948C118.239 155.868 118.341 152.728 119.568 150.497C119.568 153.209 119.568 155.921 119.568 158.633C119.568 158.729 119.578 158.818 119.583 158.911C119.58 158.955 119.569 158.992 119.569 159.037C119.569 165.492 119.556 171.946 119.26 178.396C119.129 181.264 124.062 181.253 124.192 178.396C124.424 173.341 124.482 168.282 124.496 163.223C124.729 163.237 124.963 163.237 125.197 163.225C125.211 168.284 125.267 173.342 125.497 178.396C125.628 181.253 130.561 181.264 130.429 178.396C130.133 171.946 130.122 165.492 130.122 159.037C130.122 158.836 130.093 158.654 130.048 158.479C130.041 155.676 129.922 152.871 129.959 150.07C131.428 152.312 131.562 155.731 131.307 157.946C131.018 160.438 135.335 160.413 135.62 157.946C136.293 152.12 133.851 144.439 126.313 143.959Z" fill="#C1121F"/>
<path d="M163.193 142.106C165.577 142.106 167.509 140.364 167.509 138.215C167.509 136.067 165.577 134.325 163.193 134.325C160.809 134.325 158.877 136.067 158.877 138.215C158.877 140.364 160.809 142.106 163.193 142.106Z" fill="#C1121F"/>
<path d="M164.696 143.959C163.621 143.763 162.452 143.771 161.395 143.996C154.22 144.754 151.89 152.24 152.548 157.948C152.834 160.416 157.149 160.442 156.861 157.948C156.622 155.868 156.724 152.728 157.951 150.497C157.951 153.209 157.951 155.921 157.951 158.633C157.951 158.729 157.961 158.818 157.966 158.911C157.963 158.955 157.952 158.992 157.952 159.037C157.952 165.492 157.939 171.946 157.644 178.396C157.512 181.264 162.445 181.253 162.575 178.396C162.807 173.341 162.865 168.282 162.879 163.223C163.112 163.237 163.346 163.237 163.58 163.225C163.594 168.284 163.651 173.342 163.88 178.396C164.012 181.253 168.944 181.264 168.812 178.396C168.516 171.946 168.506 165.492 168.506 159.037C168.506 158.836 168.476 158.654 168.431 158.479C168.424 155.676 168.305 152.871 168.342 150.07C169.811 152.312 169.945 155.731 169.69 157.946C169.401 160.438 173.718 160.413 174.003 157.946C174.676 152.12 172.234 144.439 164.696 143.959Z" fill="#C1121F"/>
<path d="M201.576 142.106C203.959 142.106 205.892 140.364 205.892 138.215C205.892 136.067 203.959 134.325 201.576 134.325C199.192 134.325 197.26 136.067 197.26 138.215C197.26 140.364 199.192 142.106 201.576 142.106Z" fill="#C1121F"/>
<path d="M203.079 143.959C202.004 143.763 200.835 143.771 199.778 143.996C192.603 144.754 190.273 152.24 190.931 157.948C191.217 160.416 195.532 160.442 195.244 157.948C195.005 155.868 195.107 152.728 196.334 150.497C196.334 153.209 196.334 155.921 196.334 158.633C196.334 158.729 196.345 158.818 196.349 158.911C196.346 158.955 196.335 158.992 196.335 159.037C196.335 165.492 196.322 171.946 196.027 178.396C195.895 181.264 200.828 181.253 200.958 178.396C201.19 173.341 201.248 168.282 201.262 163.223C201.495 163.237 201.729 163.237 201.963 163.225C201.977 168.284 202.034 173.342 202.263 178.396C202.395 181.253 207.327 181.264 207.195 178.396C206.899 171.946 206.889 165.492 206.889 159.037C206.889 158.836 206.859 158.654 206.814 158.479C206.807 155.676 206.688 152.871 206.725 150.07C208.194 152.312 208.328 155.731 208.073 157.946C207.784 160.438 212.101 160.413 212.386 157.946C213.059 152.12 210.617 144.439 203.079 143.959Z" fill="#C1121F"/>
<path d="M239.959 142.106C242.343 142.106 244.275 140.364 244.275 138.215C244.275 136.067 242.343 134.325 239.959 134.325C237.575 134.325 235.643 136.067 235.643 138.215C235.643 140.364 237.575 142.106 239.959 142.106Z" fill="#C1121F"/>
<path d="M241.463 143.959C240.387 143.763 239.218 143.771 238.162 143.996C230.986 144.754 228.657 152.24 229.315 157.948C229.6 160.416 233.916 160.442 233.628 157.948C233.388 155.868 233.491 152.728 234.717 150.497C234.717 153.209 234.717 155.921 234.717 158.633C234.717 158.729 234.728 158.818 234.733 158.911C234.73 158.955 234.718 158.992 234.718 159.037C234.718 165.492 234.706 171.946 234.41 178.396C234.279 181.264 239.211 181.253 239.342 178.396C239.573 173.341 239.632 168.282 239.645 163.223C239.879 163.237 240.112 163.237 240.346 163.225C240.36 168.284 240.417 173.342 240.647 178.396C240.778 181.253 245.71 181.264 245.578 178.396C245.282 171.946 245.272 165.492 245.272 159.037C245.272 158.836 245.242 158.654 245.197 158.479C245.19 155.676 245.072 152.871 245.108 150.07C246.577 152.312 246.711 155.731 246.456 157.946C246.167 160.438 250.484 160.413 250.769 157.946C251.443 152.12 249.001 144.439 241.463 143.959Z" fill="#C1121F"/>
<path d="M278.342 142.105C280.726 142.105 282.658 140.364 282.658 138.215C282.658 136.066 280.726 134.325 278.342 134.325C275.958 134.325 274.026 136.066 274.026 138.215C274.026 140.364 275.958 142.105 278.342 142.105Z" fill="#C1121F"/>
<path d="M279.846 143.96C278.77 143.763 277.601 143.771 276.545 143.996C269.37 144.754 267.04 152.24 267.698 157.948C267.983 160.416 272.299 160.442 272.011 157.948C271.771 155.868 271.874 152.729 273.1 150.497C273.1 153.21 273.1 155.922 273.1 158.633C273.1 158.729 273.111 158.819 273.116 158.911C273.113 158.955 273.101 158.992 273.101 159.037C273.101 165.493 273.089 171.946 272.793 178.396C272.662 181.264 277.594 181.253 277.725 178.396C277.956 173.341 278.015 168.283 278.028 163.223C278.262 163.237 278.495 163.237 278.729 163.225C278.743 168.284 278.8 173.343 279.03 178.396C279.161 181.253 284.094 181.264 283.961 178.396C283.665 171.946 283.655 165.493 283.655 159.037C283.655 158.837 283.625 158.655 283.58 158.479C283.574 155.677 283.455 152.871 283.491 150.07C284.96 152.312 285.094 155.731 284.839 157.947C284.55 160.439 288.867 160.414 289.153 157.947C289.826 152.12 287.384 144.44 279.846 143.96Z" fill="#C1121F"/>
<path d="M316.725 142.105C319.109 142.105 321.041 140.364 321.041 138.215C321.041 136.066 319.109 134.325 316.725 134.325C314.341 134.325 312.409 136.066 312.409 138.215C312.409 140.364 314.341 142.105 316.725 142.105Z" fill="#C1121F"/>
<path d="M318.229 143.96C317.153 143.763 315.984 143.771 314.928 143.996C307.753 144.754 305.423 152.24 306.081 157.948C306.366 160.416 310.682 160.442 310.394 157.948C310.154 155.868 310.257 152.729 311.483 150.497C311.483 153.21 311.483 155.922 311.483 158.633C311.483 158.729 311.494 158.819 311.499 158.911C311.496 158.955 311.484 158.992 311.484 159.037C311.484 165.493 311.472 171.946 311.176 178.396C311.045 181.264 315.977 181.253 316.108 178.396C316.339 173.341 316.398 168.283 316.411 163.223C316.645 163.237 316.878 163.237 317.112 163.225C317.127 168.284 317.183 173.343 317.413 178.396C317.544 181.253 322.477 181.264 322.344 178.396C322.049 171.946 322.038 165.493 322.038 159.037C322.038 158.837 322.008 158.655 321.963 158.479C321.957 155.677 321.838 152.871 321.874 150.07C323.343 152.312 323.477 155.731 323.223 157.947C322.933 160.439 327.25 160.414 327.536 157.947C328.209 152.12 325.767 144.44 318.229 143.96Z" fill="#C1121F"/>
<path d="M355.109 142.105C357.492 142.105 359.425 140.364 359.425 138.215C359.425 136.066 357.492 134.325 355.109 134.325C352.725 134.325 350.793 136.066 350.793 138.215C350.793 140.364 352.725 142.105 355.109 142.105Z" fill="#C1121F"/>
<path d="M356.612 143.96C355.537 143.763 354.367 143.771 353.311 143.996C346.136 144.754 343.806 152.24 344.464 157.948C344.749 160.416 349.065 160.442 348.777 157.948C348.538 155.868 348.64 152.729 349.867 150.497C349.867 153.21 349.867 155.922 349.867 158.633C349.867 158.729 349.877 158.819 349.882 158.911C349.879 158.955 349.868 158.992 349.868 159.037C349.868 165.493 349.855 171.946 349.559 178.396C349.428 181.264 354.361 181.253 354.491 178.396C354.723 173.341 354.781 168.283 354.794 163.223C355.028 163.237 355.262 163.237 355.495 163.225C355.51 168.284 355.566 173.343 355.796 178.396C355.927 181.253 360.86 181.264 360.728 178.396C360.432 171.946 360.421 165.493 360.421 159.037C360.421 158.837 360.392 158.655 360.347 158.479C360.34 155.677 360.221 152.871 360.258 150.07C361.727 152.312 361.861 155.731 361.606 157.947C361.317 160.439 365.633 160.414 365.919 157.947C366.592 152.12 364.15 144.44 356.612 143.96Z" fill="#C1121F"/>
<path d="M393.492 142.105C395.875 142.105 397.808 140.364 397.808 138.215C397.808 136.066 395.875 134.325 393.492 134.325C391.108 134.325 389.176 136.066 389.176 138.215C389.176 140.364 391.108 142.105 393.492 142.105Z" fill="#C1121F"/>
<path d="M394.995 143.96C393.92 143.763 392.75 143.771 391.694 143.996C384.519 144.754 382.189 152.24 382.847 157.948C383.132 160.416 387.448 160.442 387.16 157.948C386.921 155.868 387.023 152.729 388.25 150.497C388.25 153.21 388.25 155.922 388.25 158.633C388.25 158.729 388.26 158.819 388.265 158.911C388.262 158.955 388.251 158.992 388.251 159.037C388.251 165.493 388.238 171.946 387.942 178.396C387.811 181.264 392.744 181.253 392.874 178.396C393.106 173.341 393.164 168.283 393.178 163.223C393.411 163.237 393.645 163.237 393.878 163.225C393.893 168.284 393.949 173.343 394.179 178.396C394.31 181.253 399.243 181.264 399.111 178.396C398.815 171.946 398.804 165.493 398.804 159.037C398.804 158.837 398.775 158.655 398.73 158.479C398.723 155.677 398.604 152.871 398.641 150.07C400.11 152.312 400.244 155.731 399.989 157.947C399.7 160.439 404.017 160.414 404.302 157.947C404.975 152.12 402.533 144.44 394.995 143.96Z" fill="#C1121F"/>
<path d="M431.875 142.105C434.259 142.105 436.191 140.364 436.191 138.215C436.191 136.066 434.259 134.325 431.875 134.325C429.491 134.325 427.559 136.066 427.559 138.215C427.559 140.364 429.491 142.105 431.875 142.105Z" fill="#C1121F"/>
<path d="M433.378 143.96C432.303 143.763 431.134 143.771 430.078 143.996C422.902 144.754 420.572 152.24 421.23 157.948C421.516 160.416 425.832 160.442 425.543 157.948C425.304 155.868 425.406 152.729 426.633 150.497C426.633 153.21 426.633 155.922 426.633 158.633C426.633 158.729 426.644 158.819 426.648 158.911C426.646 158.955 426.634 158.992 426.634 159.037C426.634 165.493 426.622 171.946 426.326 178.396C426.194 181.264 431.127 181.253 431.257 178.396C431.489 173.341 431.547 168.283 431.561 163.223C431.794 163.237 432.028 163.237 432.262 163.225C432.276 168.284 432.333 173.343 432.562 178.396C432.694 181.253 437.626 181.264 437.494 178.396C437.198 171.946 437.188 165.493 437.188 159.037C437.188 158.837 437.158 158.655 437.113 158.479C437.106 155.677 436.988 152.871 437.024 150.07C438.493 152.312 438.627 155.731 438.372 157.947C438.083 160.439 442.4 160.414 442.685 157.947C443.358 152.12 440.917 144.44 433.378 143.96Z" fill="#C1121F"/>
<path d="M470.258 142.105C472.641 142.105 474.574 140.364 474.574 138.215C474.574 136.066 472.641 134.325 470.258 134.325C467.874 134.325 465.942 136.066 465.942 138.215C465.942 140.364 467.874 142.105 470.258 142.105Z" fill="#C1121F"/>
<path d="M471.761 143.96C470.686 143.763 469.517 143.771 468.461 143.996C461.285 144.754 458.955 152.24 459.613 157.948C459.899 160.416 464.215 160.442 463.926 157.948C463.687 155.868 463.789 152.729 465.016 150.497C465.016 153.21 465.016 155.922 465.016 158.633C465.016 158.729 465.027 158.819 465.031 158.911C465.029 158.955 465.017 158.992 465.017 159.037C465.017 165.493 465.005 171.946 464.709 178.396C464.578 181.264 469.51 181.253 469.64 178.396C469.872 173.341 469.93 168.283 469.944 163.223C470.178 163.237 470.411 163.237 470.645 163.225C470.659 168.284 470.716 173.343 470.946 178.396C471.077 181.253 476.009 181.264 475.877 178.396C475.581 171.946 475.571 165.493 475.571 159.037C475.571 158.837 475.541 158.655 475.496 158.479C475.489 155.677 475.371 152.871 475.407 150.07C476.876 152.312 477.01 155.731 476.755 157.947C476.466 160.439 480.783 160.414 481.068 157.947C481.741 152.12 479.3 144.44 471.761 143.96Z" fill="#C1121F"/>
<path d="M508.641 142.105C511.025 142.105 512.957 140.364 512.957 138.215C512.957 136.066 511.025 134.325 508.641 134.325C506.257 134.325 504.325 136.066 504.325 138.215C504.325 140.364 506.257 142.105 508.641 142.105Z" fill="#C1121F"/>
<path d="M510.144 143.96C509.069 143.763 507.9 143.771 506.844 143.996C499.668 144.754 497.339 152.24 497.996 157.948C498.282 160.416 502.598 160.442 502.309 157.948C502.07 155.868 502.172 152.729 503.399 150.497C503.399 153.21 503.399 155.922 503.399 158.633C503.399 158.729 503.41 158.819 503.414 158.911C503.412 158.955 503.4 158.992 503.4 159.037C503.4 165.493 503.388 171.946 503.092 178.396C502.961 181.264 507.893 181.253 508.023 178.396C508.255 173.341 508.314 168.283 508.327 163.223C508.561 163.237 508.794 163.237 509.028 163.225C509.042 168.284 509.099 173.343 509.329 178.396C509.46 181.253 514.392 181.264 514.26 178.396C513.964 171.946 513.954 165.493 513.954 159.037C513.954 158.837 513.924 158.655 513.879 158.479C513.872 155.677 513.754 152.871 513.79 150.07C515.259 152.312 515.393 155.731 515.138 157.947C514.849 160.439 519.166 160.414 519.451 157.947C520.125 152.12 517.683 144.44 510.144 143.96Z" fill="#C1121F"/>
<path d="M547.024 142.105C549.408 142.105 551.34 140.364 551.34 138.215C551.34 136.066 549.408 134.325 547.024 134.325C544.641 134.325 542.708 136.066 542.708 138.215C542.708 140.364 544.641 142.105 547.024 142.105Z" fill="#C1121F"/>
<path d="M548.528 143.96C547.452 143.763 546.283 143.771 545.227 143.996C538.052 144.754 535.722 152.24 536.38 157.948C536.665 160.416 540.981 160.442 540.693 157.948C540.453 155.868 540.556 152.729 541.782 150.497C541.782 153.21 541.782 155.922 541.782 158.633C541.782 158.729 541.793 158.819 541.798 158.911C541.795 158.955 541.783 158.992 541.783 159.037C541.783 165.493 541.771 171.946 541.475 178.396C541.344 181.264 546.276 181.253 546.407 178.396C546.638 173.341 546.697 168.283 546.71 163.223C546.944 163.237 547.178 163.237 547.411 163.225C547.426 168.284 547.482 173.343 547.712 178.396C547.843 181.253 552.776 181.264 552.644 178.396C552.348 171.946 552.337 165.493 552.337 159.037C552.337 158.837 552.307 158.655 552.262 158.479C552.256 155.677 552.137 152.871 552.173 150.07C553.642 152.312 553.776 155.731 553.522 157.947C553.232 160.439 557.549 160.414 557.835 157.947C558.508 152.12 556.066 144.44 548.528 143.96Z" fill="#C1121F"/>
<path d="M585.407 142.105C587.791 142.105 589.723 140.364 589.723 138.215C589.723 136.066 587.791 134.325 585.407 134.325C583.024 134.325 581.091 136.066 581.091 138.215C581.091 140.364 583.024 142.105 585.407 142.105Z" fill="#C1121F"/>
<path d="M586.911 143.96C585.835 143.763 584.666 143.771 583.61 143.996C576.435 144.754 574.105 152.24 574.763 157.948C575.048 160.416 579.364 160.442 579.076 157.948C578.836 155.868 578.939 152.729 580.166 150.497C580.166 153.21 580.166 155.922 580.166 158.633C580.166 158.729 580.176 158.819 580.181 158.911C580.178 158.955 580.166 158.992 580.166 159.037C580.166 165.493 580.154 171.946 579.858 178.396C579.727 181.264 584.66 181.253 584.79 178.396C585.021 173.341 585.08 168.283 585.093 163.223C585.327 163.237 585.561 163.237 585.794 163.225C585.809 168.284 585.865 173.343 586.095 178.396C586.226 181.253 591.159 181.264 591.027 178.396C590.731 171.946 590.72 165.493 590.72 159.037C590.72 158.837 590.69 158.655 590.645 158.479C590.639 155.677 590.52 152.871 590.556 150.07C592.025 152.312 592.159 155.731 591.905 157.947C591.615 160.439 595.932 160.414 596.218 157.947C596.891 152.12 594.449 144.44 586.911 143.96Z" fill="#C1121F"/>
<path d="M623.791 142.105C626.174 142.105 628.106 140.364 628.106 138.215C628.106 136.066 626.174 134.325 623.791 134.325C621.407 134.325 619.475 136.066 619.475 138.215C619.475 140.364 621.407 142.105 623.791 142.105Z" fill="#C1121F"/>
<path d="M625.294 143.96C624.219 143.763 623.05 143.771 621.993 143.996C614.818 144.754 612.488 152.24 613.146 157.948C613.431 160.416 617.747 160.442 617.459 157.948C617.22 155.868 617.322 152.729 618.549 150.497C618.549 153.21 618.549 155.922 618.549 158.633C618.549 158.729 618.559 158.819 618.564 158.911C618.561 158.955 618.55 158.992 618.55 159.037C618.55 165.493 618.537 171.946 618.241 178.396C618.11 181.264 623.043 181.253 623.173 178.396C623.405 173.341 623.463 168.283 623.477 163.223C623.71 163.237 623.944 163.237 624.178 163.225C624.192 168.284 624.248 173.343 624.478 178.396C624.609 181.253 629.542 181.264 629.41 178.396C629.114 171.946 629.103 165.493 629.103 159.037C629.103 158.837 629.074 158.655 629.029 158.479C629.022 155.677 628.903 152.871 628.94 150.07C630.409 152.312 630.543 155.731 630.288 157.947C629.999 160.439 634.316 160.414 634.601 157.947C635.274 152.12 632.832 144.44 625.294 143.96Z" fill="#C1121F"/>
</svg>
