<svg width="66" height="66" viewBox="0 0 66 66" fill="none" xmlns="http://www.w3.org/2000/svg">
<path d="M8.15745 57.8028H19.6551C20.3403 57.8028 20.9495 58.1073 21.4064 58.6403C23.7668 61.5338 27.7262 64.9602 32.9801 64.9602C38.234 64.9602 42.1934 61.5338 44.5539 58.6403C45.0107 58.1073 45.6199 57.8028 46.3051 57.8028H57.8028V46.229C57.8028 45.5437 58.1073 44.9346 58.6403 44.4777C61.5338 42.1173 64.9602 38.1578 64.9602 32.904C64.9602 27.6501 61.5338 23.6906 58.6403 21.3302C58.1073 20.8734 57.8028 20.2642 57.8028 19.5789V8.15745H46.229C45.5437 8.15745 44.9346 7.85288 44.4777 7.31988C42.1173 4.42644 38.1578 1 32.904 1C27.6501 1 23.6906 4.42644 21.3302 7.31988C20.8734 7.85288 20.2642 8.15745 19.5789 8.15745H8.15745V19.6551C8.15745 20.3403 7.85288 20.9495 7.31988 21.4064C4.42644 23.7668 1 27.7262 1 32.9801C1 38.234 4.42644 42.1934 7.31988 44.5539C7.85288 45.0107 8.15745 45.6199 8.15745 46.3051V57.8028Z" stroke="#F5F5F5" stroke-width="2" stroke-miterlimit="10"/>
</svg>
